/* XPM */
static const char *coin[] = {
/* columns rows colors chars-per-pixel */
"80 80 16 1 ",
"  c #770058",
". c #771A53",
"X c #420075",
"o c #77007E",
"O c gray25",
"+ c #774053",
"@ c #AF8F00",
"# c #B59300",
"$ c #BC9A00",
"% c #CEA800",
"& c #D6AB00",
"* c #DDB500",
"= c #E0B300",
"- c #EDC100",
"; c #FFD000",
": c #77489B",
/* pixels */
"XXXXOOOOOOOOXXXXXXXXXXXXXXXXXXXXOOOOOOOOXXXXXXXXXXXXXXXXXXXXXXXXooooXXXXXXXXXXXX",
"XXXXOOOOOOOOXXXXXXXXXXXXXXXXXXXXOOOOOOOOXXXXXXXXXXXXXXXXXXXXXXXXooooXXXXXXXXXXXX",
"XXXXOOOOOOOOXXXXXXXXXXXXXXXXXXXXOOOOOOOOXXXXXXXXXXXXXXXXXXXXXXXXooooXXXXXXXXXXXX",
"XXXXOOOOOOOOXXXXXXXXXXXXXXXXXXXXOOOOOOOOXXXXXXXXXXXXXXXXXXXXXXXXooooXXXXXXXXXXXX",
"OOOOOOOOOOOOXXXXXXXX    XXXXXXXXOOOOOOOOOOOOXXXX::::XXXXXXXXXXXXXXXXXXXX    XXXX",
"OOOOOOOOOOOOXXXXXXXX    XXXXXXXXOOOOOOOOOOOOXXXX::::XXXXXXXXXXXXXXXXXXXX    XXXX",
"OOOOOOOOOOOOXXXXXXXX    XXXXXXXXOOOOOOOOOOOOXXXX::::XXXXXXXXXXXXXXXXXXXX    XXXX",
"OOOOOOOOOOOOXXXXXXXX    XXXXXXXXOOOOOOOOOOOOXXXX::::XXXXXXXXXXXXXXXXXXXX    XXXX",
"XXXXOOOOXXXXXXXXXXXXXXXXXXXXOOOOOOOOOOOOOOOOXXXXXXXXXXXXXXXXXXXXXXXXOOOOOOOOXXXX",
"XXXXOOOOXXXXXXXXXXXXXXXXXXXXOOOOOOOOOOOOOOOOXXXXXXXXXXXXXXXXXXXXXXXXOOOOOOOOXXXX",
"XXXXOOOOXXXXXXXXXXXXXXXXXXXXOOOOOOOOOOOOOOOOXXXXXXXXXXXXXXXXXXXXXXXXOOOOOOOOXXXX",
"XXXXOOOOXXXXXXXXXXXXXXXXXXXXOOOOOOOOOOOOOOOOXXXXXXXXXXXXXXXXXXXXXXXXOOOOOOOOXXXX",
"::::XXXXXXXXOOOOOOOOOOOOXXXX;;;;----****%%%%%%%%%%%%%%%%XXXXXXXXOOOOOOOOOOOOOOOO",
"::::XXXXXXXXOOOOOOOOOOOOXXXX;;;;----****%%%%%%%%%%%%%%%%XXXXXXXXOOOOOOOOOOOOOOOO",
"::::XXXXXXXXOOOOOOOOOOOOXXXX;;;;----****%%%%%%%%%%%%%%%%XXXXXXXXOOOOOOOOOOOOOOOO",
"::::XXXXXXXXOOOOOOOOOOOOXXXX;;;;----****%%%%%%%%%%%%%%%%XXXXXXXXOOOOOOOOOOOOOOOO",
"XXXXOOOOOOOOOOOOOOOOOOOO;;;;----****%%%%%%%%%%%%%%%%%%%%%%%%XXXXOOOOOOOOOOOOOOOO",
"XXXXOOOOOOOOOOOOOOOOOOOO;;;;----****%%%%%%%%%%%%%%%%%%%%%%%%XXXXOOOOOOOOOOOOOOOO",
"XXXXOOOOOOOOOOOOOOOOOOOO;;;;----****%%%%%%%%%%%%%%%%%%%%%%%%XXXXOOOOOOOOOOOOOOOO",
"XXXXOOOOOOOOOOOOOOOOOOOO;;;;----****%%%%%%%%%%%%%%%%%%%%%%%%XXXXOOOOOOOOOOOOOOOO",
"OOOOOOOOOOOOOOOOOOOO;;;;----****%%%%%%%%====%%%%%%%%%%%%%%%%%%%%OOOOOOOOOOOOOOOO",
"OOOOOOOOOOOOOOOOOOOO;;;;----****%%%%%%%%====%%%%%%%%%%%%%%%%%%%%OOOOOOOOOOOOOOOO",
"OOOOOOOOOOOOOOOOOOOO;;;;----****%%%%%%%%====%%%%%%%%%%%%%%%%%%%%OOOOOOOOOOOOOOOO",
"OOOOOOOOOOOOOOOOOOOO;;;;----****%%%%%%%%====%%%%%%%%%%%%%%%%%%%%OOOOOOOOOOOOOOOO",
"OOOOOOOOOOOOOOOO;;;;----****%%%%%%%%====&&&&====%%%%%%%%%%%%%%%%%%%%OOOOOOOOXXXX",
"OOOOOOOOOOOOOOOO;;;;----****%%%%%%%%====&&&&====%%%%%%%%%%%%%%%%%%%%OOOOOOOOXXXX",
"OOOOOOOOOOOOOOOO;;;;----****%%%%%%%%====&&&&====%%%%%%%%%%%%%%%%%%%%OOOOOOOOXXXX",
"OOOOOOOOOOOOOOOO;;;;----****%%%%%%%%====&&&&====%%%%%%%%%%%%%%%%%%%%OOOOOOOOXXXX",
"OOOOOOOOOOOOOOOO----****%%%%%%%%%%%%====&&&&====%%%%%%%%%%%%%%%%%%%%XXXXOOOO::::",
"OOOOOOOOOOOOOOOO----****%%%%%%%%%%%%====&&&&====%%%%%%%%%%%%%%%%%%%%XXXXOOOO::::",
"OOOOOOOOOOOOOOOO----****%%%%%%%%%%%%====&&&&====%%%%%%%%%%%%%%%%%%%%XXXXOOOO::::",
"OOOOOOOOOOOOOOOO----****%%%%%%%%%%%%====&&&&====%%%%%%%%%%%%%%%%%%%%XXXXOOOO::::",
"OOOOOOOOOOOOOOOO****%%%%%%%%%%%%%%%%====&&&&====%%%%%%%%%%%%%%%%%%%%XXXXXXXXXXXX",
"OOOOOOOOOOOOOOOO****%%%%%%%%%%%%%%%%====&&&&====%%%%%%%%%%%%%%%%%%%%XXXXXXXXXXXX",
"OOOOOOOOOOOOOOOO****%%%%%%%%%%%%%%%%====&&&&====%%%%%%%%%%%%%%%%%%%%XXXXXXXXXXXX",
"OOOOOOOOOOOOOOOO****%%%%%%%%%%%%%%%%====&&&&====%%%%%%%%%%%%%%%%%%%%XXXXXXXXXXXX",
"XXXXOOOOOOOOOOOO%%%%%%%%%%%%%%%%%%%%====&&&&====%%%%%%%%%%%%%%%%%%%%XXXX++++XXXX",
"XXXXOOOOOOOOOOOO%%%%%%%%%%%%%%%%%%%%====&&&&====%%%%%%%%%%%%%%%%%%%%XXXX++++XXXX",
"XXXXOOOOOOOOOOOO%%%%%%%%%%%%%%%%%%%%====&&&&====%%%%%%%%%%%%%%%%%%%%XXXX++++XXXX",
"XXXXOOOOOOOOOOOO%%%%%%%%%%%%%%%%%%%%====&&&&====%%%%%%%%%%%%%%%%%%%%XXXX++++XXXX",
"XXXXXXXXXXXXXXXX%%%%%%%%%%%%%%%%%%%%====&&&&====%%%%%%%%%%%%%%%%$$$$XXXXXXXXXXXX",
"XXXXXXXXXXXXXXXX%%%%%%%%%%%%%%%%%%%%====&&&&====%%%%%%%%%%%%%%%%$$$$XXXXXXXXXXXX",
"XXXXXXXXXXXXXXXX%%%%%%%%%%%%%%%%%%%%====&&&&====%%%%%%%%%%%%%%%%$$$$XXXXXXXXXXXX",
"XXXXXXXXXXXXXXXX%%%%%%%%%%%%%%%%%%%%====&&&&====%%%%%%%%%%%%%%%%$$$$XXXXXXXXXXXX",
"XXXXOOOOXXXXXXXX%%%%%%%%%%%%%%%%%%%%====&&&&====%%%%%%%%%%%%$$$$$$$$OOOOOOOOOOOO",
"XXXXOOOOXXXXXXXX%%%%%%%%%%%%%%%%%%%%====&&&&====%%%%%%%%%%%%$$$$$$$$OOOOOOOOOOOO",
"XXXXOOOOXXXXXXXX%%%%%%%%%%%%%%%%%%%%====&&&&====%%%%%%%%%%%%$$$$$$$$OOOOOOOOOOOO",
"XXXXOOOOXXXXXXXX%%%%%%%%%%%%%%%%%%%%====&&&&====%%%%%%%%%%%%$$$$$$$$OOOOOOOOOOOO",
"XXXXOOOOOOOO++++%%%%%%%%%%%%%%%%%%%%====&&&&====%%%%%%%%$$$$$$$$@@@@OOOOOOOOOOOO",
"XXXXOOOOOOOO++++%%%%%%%%%%%%%%%%%%%%====&&&&====%%%%%%%%$$$$$$$$@@@@OOOOOOOOOOOO",
"XXXXOOOOOOOO++++%%%%%%%%%%%%%%%%%%%%====&&&&====%%%%%%%%$$$$$$$$@@@@OOOOOOOOOOOO",
"XXXXOOOOOOOO++++%%%%%%%%%%%%%%%%%%%%====&&&&====%%%%%%%%$$$$$$$$@@@@OOOOOOOOOOOO",
"....XXXXXXXXXXXXXXXX%%%%%%%%%%%%%%%%%%%%====%%%%%%%%$$$$$$$$@@@@OOOOOOOOOOOOOOOO",
"....XXXXXXXXXXXXXXXX%%%%%%%%%%%%%%%%%%%%====%%%%%%%%$$$$$$$$@@@@OOOOOOOOOOOOOOOO",
"....XXXXXXXXXXXXXXXX%%%%%%%%%%%%%%%%%%%%====%%%%%%%%$$$$$$$$@@@@OOOOOOOOOOOOOOOO",
"....XXXXXXXXXXXXXXXX%%%%%%%%%%%%%%%%%%%%====%%%%%%%%$$$$$$$$@@@@OOOOOOOOOOOOOOOO",
"OOOOOOOOOOOOOOOO::::XXXX%%%%%%%%%%%%%%%%%%%%%%%%$$$$####@@@@XXXXXXXXOOOOOOOOXXXX",
"OOOOOOOOOOOOOOOO::::XXXX%%%%%%%%%%%%%%%%%%%%%%%%$$$$####@@@@XXXXXXXXOOOOOOOOXXXX",
"OOOOOOOOOOOOOOOO::::XXXX%%%%%%%%%%%%%%%%%%%%%%%%$$$$####@@@@XXXXXXXXOOOOOOOOXXXX",
"OOOOOOOOOOOOOOOO::::XXXX%%%%%%%%%%%%%%%%%%%%%%%%$$$$####@@@@XXXXXXXXOOOOOOOOXXXX",
"OOOOOOOOOOOOOOOOOOOOOOOOXXXX%%%%%%%%%%%%$$$$$$$$####@@@@XXXXXXXXXXXX::::XXXXXXXX",
"OOOOOOOOOOOOOOOOOOOOOOOOXXXX%%%%%%%%%%%%$$$$$$$$####@@@@XXXXXXXXXXXX::::XXXXXXXX",
"OOOOOOOOOOOOOOOOOOOOOOOOXXXX%%%%%%%%%%%%$$$$$$$$####@@@@XXXXXXXXXXXX::::XXXXXXXX",
"OOOOOOOOOOOOOOOOOOOOOOOOXXXX%%%%%%%%%%%%$$$$$$$$####@@@@XXXXXXXXXXXX::::XXXXXXXX",
"OOOOOOOOOOOOOOOOOOOOOOOOooooXXXXOOOOOOOOOOOOOOOOOOOOXXXX::::XXXXXXXXXXXXXXXXXXXX",
"OOOOOOOOOOOOOOOOOOOOOOOOooooXXXXOOOOOOOOOOOOOOOOOOOOXXXX::::XXXXXXXXXXXXXXXXXXXX",
"OOOOOOOOOOOOOOOOOOOOOOOOooooXXXXOOOOOOOOOOOOOOOOOOOOXXXX::::XXXXXXXXXXXXXXXXXXXX",
"OOOOOOOOOOOOOOOOOOOOOOOOooooXXXXOOOOOOOOOOOOOOOOOOOOXXXX::::XXXXXXXXXXXXXXXXXXXX",
"XXXXOOOOOOOOOOOOOOOOOOOOXXXXXXXXOOOOOOOOOOOOXXXXXXXXXXXXOOOOOOOOXXXXXXXXOOOOXXXX",
"XXXXOOOOOOOOOOOOOOOOOOOOXXXXXXXXOOOOOOOOOOOOXXXXXXXXXXXXOOOOOOOOXXXXXXXXOOOOXXXX",
"XXXXOOOOOOOOOOOOOOOOOOOOXXXXXXXXOOOOOOOOOOOOXXXXXXXXXXXXOOOOOOOOXXXXXXXXOOOOXXXX",
"XXXXOOOOOOOOOOOOOOOOOOOOXXXXXXXXOOOOOOOOOOOOXXXXXXXXXXXXOOOOOOOOXXXXXXXXOOOOXXXX",
"XXXXOOOOOOOOOOOOOOOOOOOOXXXXXXXXXXXXOOOOOOOOXXXXXXXXOOOOOOOOOOOOOOOOXXXXOOOOOOOO",
"XXXXOOOOOOOOOOOOOOOOOOOOXXXXXXXXXXXXOOOOOOOOXXXXXXXXOOOOOOOOOOOOOOOOXXXXOOOOOOOO",
"XXXXOOOOOOOOOOOOOOOOOOOOXXXXXXXXXXXXOOOOOOOOXXXXXXXXOOOOOOOOOOOOOOOOXXXXOOOOOOOO",
"XXXXOOOOOOOOOOOOOOOOOOOOXXXXXXXXXXXXOOOOOOOOXXXXXXXXOOOOOOOOOOOOOOOOXXXXOOOOOOOO",
"XXXXXXXXXXXXOOOOOOOO++++XXXXXXXX++++XXXXXXXXXXXXOOOOOOOOOOOOOOOOOOOOXXXXOOOOOOOO",
"XXXXXXXXXXXXOOOOOOOO++++XXXXXXXX++++XXXXXXXXXXXXOOOOOOOOOOOOOOOOOOOOXXXXOOOOOOOO",
"XXXXXXXXXXXXOOOOOOOO++++XXXXXXXX++++XXXXXXXXXXXXOOOOOOOOOOOOOOOOOOOOXXXXOOOOOOOO",
"XXXXXXXXXXXXOOOOOOOO++++XXXXXXXX++++XXXXXXXXXXXXOOOOOOOOOOOOOOOOOOOOXXXXOOOOOOOO"
};
