/* XPM */
static const char *coin[] = {
/* columns rows colors chars-per-pixel */
"20 20 10 1 ",
"  c #AF8F00",
". c #B59300",
"X c #BC9A00",
"o c #CEA800",
"O c #D6AB00",
"+ c #DDB500",
"@ c #E0B300",
"# c #EDC100",
"$ c #FFD000",
"% c None",
/* pixels */
"%%%%%%%%%%%%%%%%%%%%",
"%%%%%%%%%%%%%%%%%%%%",
"%%%%%%%%%%%%%%%%%%%%",
"%%%%%%%$#+oooo%%%%%%",
"%%%%%%$#+oooooo%%%%%",
"%%%%%$#+oo@ooooo%%%%",
"%%%%$#+oo@O@ooooo%%%",
"%%%%#+ooo@O@ooooo%%%",
"%%%%+oooo@O@ooooo%%%",
"%%%%ooooo@O@ooooo%%%",
"%%%%ooooo@O@ooooX%%%",
"%%%%ooooo@O@oooXX%%%",
"%%%%ooooo@O@ooXX %%%",
"%%%%%ooooo@ooXX %%%%",
"%%%%%%ooooooX. %%%%%",
"%%%%%%%oooXX. %%%%%%",
"%%%%%%%%%%%%%%%%%%%%",
"%%%%%%%%%%%%%%%%%%%%",
"%%%%%%%%%%%%%%%%%%%%",
"%%%%%%%%%%%%%%%%%%%%"
};
