/* XPM */
static const char *exit[] = {
/* columns rows colors chars-per-pixel */
"80 80 9 1 ",
"  c black",
". c #38002B",
"X c #770058",
"o c #771A53",
"O c #420075",
"+ c #77007E",
"@ c gray25",
"# c #774053",
"$ c #77489B",
/* pixels */
"OOOO@@@@@@@@OOOOOOOOOOOOOOOOOOOO@@@@@@@@OOOOOOOOOOOOOOOOOOOOOOOO++++OOOOOOOOOOOO",
"OOOO@@@@@@@@OOOOOOOOOOOOOOOOOOOO@@@@@@@@OOOOOOOOOOOOOOOOOOOOOOOO++++OOOOOOOOOOOO",
"OOOO@@@@@@@@OOOOOOOOOOOOOOOOOOOO@@@@@@@@OOOOOOOOOOOOOOOOOOOOOOOO++++OOOOOOOOOOOO",
"OOOO@@@@@@@@OOOOOOOOOOOOOOOOOOOO@@@@@@@@OOOOOOOOOOOOOOOOOOOOOOOO++++OOOOOOOOOOOO",
"@@@@@@@@@@@@....OOOOXXXXOOOOOOOO@@@@@@@@@@@@OOOO....OOOOOOOOOOOOOOOOOOOOXXXXOOOO",
"@@@@@@@@@@@@....OOOOXXXXOOOOOOOO@@@@@@@@@@@@OOOO....OOOOOOOOOOOOOOOOOOOOXXXXOOOO",
"@@@@@@@@@@@@....OOOOXXXXOOOOOOOO@@@@@@@@@@@@OOOO....OOOOOOOOOOOOOOOOOOOOXXXXOOOO",
"@@@@@@@@@@@@....OOOOXXXXOOOOOOOO@@@@@@@@@@@@OOOO....OOOOOOOOOOOOOOOOOOOOXXXXOOOO",
"OOOO@@@@OOOOOOOO................                OOOO....OOOOOOOOOOOO@@@@@@@@OOOO",
"OOOO@@@@OOOOOOOO................                OOOO....OOOOOOOOOOOO@@@@@@@@OOOO",
"OOOO@@@@OOOOOOOO................                OOOO....OOOOOOOOOOOO@@@@@@@@OOOO",
"OOOO@@@@OOOOOOOO................                OOOO....OOOOOOOOOOOO@@@@@@@@OOOO",
"$$$$OOOOOOOO@@@@@@@@            ....                    ....OOOO@@@@@@@@@@@@@@@@",
"$$$$OOOOOOOO@@@@@@@@            ....                    ....OOOO@@@@@@@@@@@@@@@@",
"$$$$OOOOOOOO@@@@@@@@            ....                    ....OOOO@@@@@@@@@@@@@@@@",
"$$$$OOOOOOOO@@@@@@@@            ....                    ....OOOO@@@@@@@@@@@@@@@@",
"OOOO@@@@@@@@@@@@                    ....                ....OOOO@@@@@@@@@@@@@@@@",
"OOOO@@@@@@@@@@@@                    ....                ....OOOO@@@@@@@@@@@@@@@@",
"OOOO@@@@@@@@@@@@                    ....                ....OOOO@@@@@@@@@@@@@@@@",
"OOOO@@@@@@@@@@@@                    ....                ....OOOO@@@@@@@@@@@@@@@@",
"@@@@@@@@@@@@............                ....            ....    @@@@....@@@@@@@@",
"@@@@@@@@@@@@............                ....            ....    @@@@....@@@@@@@@",
"@@@@@@@@@@@@............                ....            ....    @@@@....@@@@@@@@",
"@@@@@@@@@@@@............                ....            ....    @@@@....@@@@@@@@",
"@@@@........            ........        ....        ....        OOOO....@@@@OOOO",
"@@@@........            ........        ....        ....        OOOO....@@@@OOOO",
"@@@@........            ........        ....        ....        OOOO....@@@@OOOO",
"@@@@........            ........        ....        ....        OOOO....@@@@OOOO",
"....@@@@                        ....    ....    ....                OOOO@@@@$$$$",
"....@@@@                        ....    ....    ....                OOOO@@@@$$$$",
"....@@@@                        ....    ....    ....                OOOO@@@@$$$$",
"....@@@@                        ....    ....    ....                OOOO@@@@$$$$",
"@@@@@@@@        ................    ............            ........OOOOOOOOOOOO",
"@@@@@@@@        ................    ............            ........OOOOOOOOOOOO",
"@@@@@@@@        ................    ............            ........OOOOOOOOOOOO",
"@@@@@@@@        ................    ............            ........OOOOOOOOOOOO",
"OOOO@@@@    ........            ............            ....        OOOO####OOOO",
"OOOO@@@@    ........            ............            ....        OOOO####OOOO",
"OOOO@@@@    ........            ............            ....        OOOO####OOOO",
"OOOO@@@@    ........            ............            ....        OOOO####OOOO",
"OOOOOOOO....                ........    ................            OOOOOOOOOOOO",
"OOOOOOOO....                ........    ................            OOOOOOOOOOOO",
"OOOOOOOO....                ........    ................            OOOOOOOOOOOO",
"OOOOOOOO....                ........    ................            OOOOOOOOOOOO",
"OOOO....                    ....        ....                        @@@@@@@@@@@@",
"OOOO....                    ....        ....                        @@@@@@@@@@@@",
"OOOO....                    ....        ....                        @@@@@@@@@@@@",
"OOOO....                    ....        ....                        @@@@@@@@@@@@",
"OOOO....@@@@            ....                ........            @@@@@@@@@@@@@@@@",
"OOOO....@@@@            ....                ........            @@@@@@@@@@@@@@@@",
"OOOO....@@@@            ....                ........            @@@@@@@@@@@@@@@@",
"OOOO....@@@@            ....                ........            @@@@@@@@@@@@@@@@",
"oooo....OOOO            ....                        ....        @@@@@@@@....@@@@",
"oooo....OOOO            ....                        ....        @@@@@@@@....@@@@",
"oooo....OOOO            ....                        ....        @@@@@@@@....@@@@",
"oooo....OOOO            ....                        ....        @@@@@@@@....@@@@",
"@@@@@@@@....@@@@        ....                            ................@@@@OOOO",
"@@@@@@@@....@@@@        ....                            ................@@@@OOOO",
"@@@@@@@@....@@@@        ....                            ................@@@@OOOO",
"@@@@@@@@....@@@@        ....                            ................@@@@OOOO",
"@@@@@@@@@@@@....@@@@        ....                        OOOOOOOOOOOO$$$$OOOOOOOO",
"@@@@@@@@@@@@....@@@@        ....                        OOOOOOOOOOOO$$$$OOOOOOOO",
"@@@@@@@@@@@@....@@@@        ....                        OOOOOOOOOOOO$$$$OOOOOOOO",
"@@@@@@@@@@@@....@@@@        ....                        OOOOOOOOOOOO$$$$OOOOOOOO",
"@@@@@@@@@@@@............++++........            @@@@OOOO$$$$OOOOOOOOOOOOOOOOOOOO",
"@@@@@@@@@@@@............++++........            @@@@OOOO$$$$OOOOOOOOOOOOOOOOOOOO",
"@@@@@@@@@@@@............++++........            @@@@OOOO$$$$OOOOOOOOOOOOOOOOOOOO",
"@@@@@@@@@@@@............++++........            @@@@OOOO$$$$OOOOOOOOOOOOOOOOOOOO",
"OOOO@@@@@@@@@@@@@@@@@@@@OOOOOOOO@@@@............OOOOOOOO@@@@@@@@OOOOOOOO@@@@OOOO",
"OOOO@@@@@@@@@@@@@@@@@@@@OOOOOOOO@@@@............OOOOOOOO@@@@@@@@OOOOOOOO@@@@OOOO",
"OOOO@@@@@@@@@@@@@@@@@@@@OOOOOOOO@@@@............OOOOOOOO@@@@@@@@OOOOOOOO@@@@OOOO",
"OOOO@@@@@@@@@@@@@@@@@@@@OOOOOOOO@@@@............OOOOOOOO@@@@@@@@OOOOOOOO@@@@OOOO",
"OOOO@@@@@@@@@@@@@@@@@@@@OOOOOOOOOOOO@@@@@@@@OOOOOOOO@@@@@@@@@@@@@@@@OOOO@@@@@@@@",
"OOOO@@@@@@@@@@@@@@@@@@@@OOOOOOOOOOOO@@@@@@@@OOOOOOOO@@@@@@@@@@@@@@@@OOOO@@@@@@@@",
"OOOO@@@@@@@@@@@@@@@@@@@@OOOOOOOOOOOO@@@@@@@@OOOOOOOO@@@@@@@@@@@@@@@@OOOO@@@@@@@@",
"OOOO@@@@@@@@@@@@@@@@@@@@OOOOOOOOOOOO@@@@@@@@OOOOOOOO@@@@@@@@@@@@@@@@OOOO@@@@@@@@",
"OOOOOOOOOOOO@@@@@@@@####OOOOOOOO####OOOOOOOOOOOO@@@@@@@@@@@@@@@@@@@@OOOO@@@@@@@@",
"OOOOOOOOOOOO@@@@@@@@####OOOOOOOO####OOOOOOOOOOOO@@@@@@@@@@@@@@@@@@@@OOOO@@@@@@@@",
"OOOOOOOOOOOO@@@@@@@@####OOOOOOOO####OOOOOOOOOOOO@@@@@@@@@@@@@@@@@@@@OOOO@@@@@@@@",
"OOOOOOOOOOOO@@@@@@@@####OOOOOOOO####OOOOOOOOOOOO@@@@@@@@@@@@@@@@@@@@OOOO@@@@@@@@"
};
