/* XPM */
static const char *ground[] = {
/* columns rows colors chars-per-pixel */
"20 20 7 1 ",
"  c #420075",
". c gray25",
"X c #77007E",
"o c #770058",
"O c #77489B",
"+ c #774053",
"@ c #771A53",
/* pixels */
" ..     ..      X   ",
"...  o  ... O     o ",
" .     ....      .. ",
"O  ...  .   .   ....",
" ...... X O...  ....",
".......  ...... ....",
".......   .....o .. ",
"......    .....   .O",
".....O X.   ..      ",
" ...   ...   O .  + ",
"      @ ..   ...    ",
" .   ..     ...  ...",
" ..+ ...  .O .  ....",
"@     . +...    ....",
"....O    ....    .. ",
"......  .....    O  ",
"......X ..... O     ",
" .....  ...   ..  . ",
" .....   ..  .... ..",
"   ..+  +   ..... .."
};
