/* XPM */
static const char *ground[] = {
/* columns rows colors chars-per-pixel */
"80 80 7 1 ",
"  c #420075",
". c gray25",
"X c #77007E",
"o c #770058",
"O c #77489B",
"+ c #774053",
"@ c #771A53",
/* pixels */
"    ........                    ........                        XXXX            ",
"    ........                    ........                        XXXX            ",
"    ........                    ........                        XXXX            ",
"    ........                    ........                        XXXX            ",
"............        oooo        ............    OOOO                    oooo    ",
"............        oooo        ............    OOOO                    oooo    ",
"............        oooo        ............    OOOO                    oooo    ",
"............        oooo        ............    OOOO                    oooo    ",
"    ....                    ................                        ........    ",
"    ....                    ................                        ........    ",
"    ....                    ................                        ........    ",
"    ....                    ................                        ........    ",
"OOOO        ............        ....            ....            ................",
"OOOO        ............        ....            ....            ................",
"OOOO        ............        ....            ....            ................",
"OOOO        ............        ....            ....            ................",
"    ........................    XXXX    OOOO............        ................",
"    ........................    XXXX    OOOO............        ................",
"    ........................    XXXX    OOOO............        ................",
"    ........................    XXXX    OOOO............        ................",
"............................        ........................    ................",
"............................        ........................    ................",
"............................        ........................    ................",
"............................        ........................    ................",
"............................            ....................oooo    ........    ",
"............................            ....................oooo    ........    ",
"............................            ....................oooo    ........    ",
"............................            ....................oooo    ........    ",
"........................                ....................            ....OOOO",
"........................                ....................            ....OOOO",
"........................                ....................            ....OOOO",
"........................                ....................            ....OOOO",
"....................OOOO    XXXX....            ........                        ",
"....................OOOO    XXXX....            ........                        ",
"....................OOOO    XXXX....            ........                        ",
"....................OOOO    XXXX....            ........                        ",
"    ............            ............            OOOO    ....        ++++    ",
"    ............            ............            OOOO    ....        ++++    ",
"    ............            ............            OOOO    ....        ++++    ",
"    ............            ............            OOOO    ....        ++++    ",
"                        @@@@    ........            ............                ",
"                        @@@@    ........            ............                ",
"                        @@@@    ........            ............                ",
"                        @@@@    ........            ............                ",
"    ....            ........                    ............        ............",
"    ....            ........                    ............        ............",
"    ....            ........                    ............        ............",
"    ....            ........                    ............        ............",
"    ........++++    ............        ....OOOO    ....        ................",
"    ........++++    ............        ....OOOO    ....        ................",
"    ........++++    ............        ....OOOO    ....        ................",
"    ........++++    ............        ....OOOO    ....        ................",
"@@@@                    ....    ++++............                ................",
"@@@@                    ....    ++++............                ................",
"@@@@                    ....    ++++............                ................",
"@@@@                    ....    ++++............                ................",
"................OOOO                ................                ........    ",
"................OOOO                ................                ........    ",
"................OOOO                ................                ........    ",
"................OOOO                ................                ........    ",
"........................        ....................                OOOO        ",
"........................        ....................                OOOO        ",
"........................        ....................                OOOO        ",
"........................        ....................                OOOO        ",
"........................XXXX    ....................    OOOO                    ",
"........................XXXX    ....................    OOOO                    ",
"........................XXXX    ....................    OOOO                    ",
"........................XXXX    ....................    OOOO                    ",
"    ....................        ............            ........        ....    ",
"    ....................        ............            ........        ....    ",
"    ....................        ............            ........        ....    ",
"    ....................        ............            ........        ....    ",
"    ....................            ........        ................    ........",
"    ....................            ........        ................    ........",
"    ....................            ........        ................    ........",
"    ....................            ........        ................    ........",
"            ........++++        ++++            ....................    ........",
"            ........++++        ++++            ....................    ........",
"            ........++++        ++++            ....................    ........",
"            ........++++        ++++            ....................    ........"
};
