/* XPM */
static const char *new_mc[] = {
/* columns rows colors chars-per-pixel */
"60 80 26 1 ",
"  c black",
". c #371A00",
"X c #292612",
"o c #3B361A",
"O c #492200",
"+ c #572A00",
"@ c #522A05",
"# c #442816",
"$ c #4D301D",
"% c #443E1E",
"& c #643000",
"* c #4D482A",
"= c #524B24",
"- c #595652",
"; c #696A6A",
": c #63727B",
"> c #BF8800",
", c #8D8A48",
"< c #9F9C54",
"1 c #B2AE59",
"2 c #F1B272",
"3 c #718590",
"4 c #7F94A1",
"5 c #839BA8",
"6 c #FFC58A",
"7 c None",
/* pixels */
"777777777777777777777777777777777777777777777777777777777777",
"77777777777777777777777777543:::::77777777777777777777777777",
"777777543:::::77777777777543:::::::77777777777543:::::777777",
"77777543:::::::7777777775431<,,,,:::777777777543:::::::77777",
"77775431<,,,,:::77777777431<,,,,,,::777777775431<,,,,:::7777",
"7777431<,,,,,,::777777773:<,,,,,,,::77777777431<,,,,,,::7777",
"77773:<,,,,,,,::77777777::,,,,,,,,::777777773:<,,,,,,,::7777",
"7777::,,,,,,,,::77777777::,,,,,,,,::77777777::,,,,,,,,::7777",
"7777::,,,,,,,,::77777777:%%=,,,,==*:77777777::,,,,,,,,::7777",
"7777:%%=,,,,==*:77777777 ====%%=**= 77777777:%%=,,,,==*:7777",
"7777 ====%%=**= 7777777 %=%%===%==** 7777777 ====%%=**= 7777",
"777 %=%%===%==** 777777 oo==%%==*=X= 777777 %=%%===%==** 777",
"777 oo==%%==*=X= 777777 %=oo==%%=*=X 777777 oo==%%==*=X= 777",
"777 %=oo==%%=*=X 777777 =%$%oo==%%%= 777777 %=oo==%%=*=X 777",
"777 =%$%oo==%%%= 777777 *6#$%=oo= 6% 777777 =%$%oo==%%%= 777",
"777 *6#$%=oo= 6% 777777 22#$X%%%= 22 777777 *6#$%=oo= 6% 777",
"777 22#$X%%%= 22 7777777  ;  ==  ;  7777777 22#$X%%%= 22 777",
"7777  ;  ==  ;  7777777777     --- 777777777  ;  ==  ;  7777",
"77777 ---  --- 7777777777777777   77777777777 ---     777777",
"777777   77   77777777777777777777777777777777   77777777777",
"777777777777777777777777777777777777777777777777777777777777",
"777777777777777777777777777777777777777777777777777777777777",
"777777743:::7777777777777743:::777777777777777743:::77777777",
"77777743:::::77777777777743:::::7777777777777743:::::7777777",
"777771<,::::::77777777771<,::::::7777777777771<,::::::777777",
"77771<,,,:::::7777777771<,,,:::::777777777771<,,,:::::777777",
"7777<,,,,:::::777777777<,,,,:::::77777777777<,,,,:::::777777",
"7777,,,,,:::::777777777,,,,,:::::77777777777,,,,,:::::777777",
"7777,,,,,::::: 77777777,,,,,::::: 7777777777,,,,,::::: 77777",
"77777,,,:::::*= 77777777,,,:::::*= 7777777777,,,:::::*= 7777",
"777777::::====*% 77777777::::====*% 7777777777::::====*% 777",
"7777777 =%%**%&& 777777777 =%%**%&& 77777777777 =%%**%&& 777",
"777777 =%**%=@@> 77777777 =%**%=@@> 7777777777 =%**%=@@> 777",
"777777 %=oo=%&&@ 77777777 %=oo=%&&@ 7777777777 %=oo=%&&@ 777",
"777777 =o==o=&&& 77777777 =o==o=&&& 7777777777 =o==o=&&& 777",
"777777 o*66=o&&. 77777777 o*66=o&&. 7777777777 o*66=o&&. 777",
"777777 * 22 =.. 777777777 * 22 =.. 77777777777 * 22 =.. 7777",
"777777  ;  ;   7777777777  ;  ;    77777777777  ;  ;;;; 7777",
"7777777 ---- 777777777777 ---- --- 77777777777 --- ---- 7777",
"77777777    77777777777777    7   7777777777777        77777",
"777777777777777777777777777777777777777777777777777777777777",
"777777777777777777777777777777777777777777777777777777777777",
"7777777743:::7777777777777777743:::777777777777743:::7777777",
"777777743:::::77777777777777743:::::7777777777743:::::777777",
"77777743::::,,,777777777777743::::,,,77777777743::::,,,77777",
"7777773::::,,,,,7777777777773::::,,,,,777777773::::,,,,,7777",
"777777:::::,,,,,777777777777:::::,,,,,77777777:::::,,,,,7777",
"777777:::::,,,,,777777777777:::::,,,,,77777777:::::,,,,,7777",
"77777 :::::,,,,,77777777777 :::::,,,,,7777777 :::::,,,,,7777",
"7777 =*:::::,,,77777777777 =*:::::,,,7777777 =*:::::,,,77777",
"777 %*====::::77777777777 %*====::::7777777 %*====::::777777",
"777 &&%**%%= 777777777777 &&%**%%= 77777777 &&%**%%= 7777777",
"777 >@@=%**%= 77777777777 >@@=%**%= 7777777 >@@=%**%= 777777",
"777 @&&%=oo=% 77777777777 @&&%=oo=% 7777777 @&&%=oo=% 777777",
"777 &&&=o==#= 77777777777 &&&=o==#= 7777777 &&&=o==#= 777777",
"777 .&&o=66#% 77777777777 .&&o=66#o 7777777 .&&o=66#o 777777",
"7777 ..= 22 * 777777777777 ..= 22 * 77777777 ..= 22 * 777777",
"77777   ;  ;  777777777777    ;  ;  77777777 ;;;;  ;  777777",
"7777777 ---- 7777777777777 --- ---- 77777777 ---- --- 777777",
"77777777    777777777777777   7    7777777777        7777777",
"777777777777777777777777777777777777777777777777777777777777",
"77777777777777777777777777543:::::77777777777777777777777777",
"777777543:::::77777777777543:::::::77777777777543:::::777777",
"77777543:::::::777777777543:::::::::777777777543:::::::77777",
"7777543:::::::::7777777743::::::::::77777777543:::::::::7777",
"777743::::::::::777777773:::::::::::7777777743::::::::::7777",
"77773:::::::::::77777777::::::::::::777777773:::::::::::7777",
"7777::::::::::::77777777::::::::::::77777777::::::::::::7777",
"7777::::::::::::77777777:%%=::::==*:77777777::::::::::::7777",
"7777:%%=::::==*:77777777 ==%=%**=*= 77777777:%%=::::==*:7777",
"7777 ==%=%**=*= 7777777 %=o@&&&&@==* 7777777 ==%=%**=*= 7777",
"777 %=o@&&&&@==* 777777 oo&&@>>@&&X= 777777 %=o@&&&&@==* 777",
"777 oo&&@>>@&&X= 777777 %=+&&&&&&+=X 777777 oo&&@>>@&&X= 777",
"777 %=+&&&&&&+=X 777777 =%O+&&&&+O%= 777777 %=+&&&&&&+=X 777",
"777 =%O+&&&&+O%= 777777 *= O++++O =% 777777 =%O+&&&&+O%= 777",
"777 *= O++++O =% 777777 2= %OOOO= =2 777777 *= O++++O =% 777",
"777 2= %OOOO= =2 7777777  ;  ==  ;  7777777 2= %OOOO= =2 777",
"7777  ;  ==  ;  7777777777     --- 777777777  ;  ==  ;  7777",
"77777 ---  --- 7777777777777777   77777777777 ---     777777",
"777777   77   77777777777777777777777777777777   77777777777"
};
