/* XPM */
static const char *player_l1[] = {
/* columns rows colors chars-per-pixel */
"20 20 20 1 ",
"  c black",
". c #371A00",
"X c #3B361A",
"o c #522A05",
"O c #443E1E",
"+ c #643000",
"@ c #4D482A",
"# c #524B24",
"$ c #595652",
"% c #696A6A",
"& c #63727B",
"* c #BF8800",
"= c #8D8A48",
"- c #9F9C54",
"; c #B2AE59",
": c #F1B272",
"> c #718590",
", c #7F94A1",
"< c #FFC58A",
"1 c None",
/* pixels */
"11111111111111111111",
"11111111111111111111",
"111111,>&&&111111111",
"11111,>&&&&&11111111",
"1111;-=&&&&&&1111111",
"111;-===&&&&&1111111",
"111-====&&&&&1111111",
"111=====&&&&&1111111",
"111=====&&&&& 111111",
"1111===&&&&&@# 11111",
"11111&&&&####@O 1111",
"111111 #OO@@O++ 1111",
"11111 #O@@O#oo* 1111",
"11111 O#XX#O++o 1111",
"11111 #X##X#+++ 1111",
"11111 X@<<#X++. 1111",
"11111 @ :: #.. 11111",
"11111  %  %    11111",
"11111 $$$$ $$$ 11111",
"111111    1   111111"
};
