/* XPM */
static const char *player_r[] = {
/* columns rows colors chars-per-pixel */
"80 80 25 1 ",
"  c black",
". c #371A00",
"X c #3B361A",
"o c #522A05",
"O c #442816",
"+ c #443E1E",
"@ c #643000",
"# c #4D482A",
"$ c #524B24",
"% c #770058",
"& c #771A53",
"* c #420075",
"= c #77007E",
"- c gray25",
"; c #595652",
": c #774053",
"> c #696A6A",
", c #63727B",
"< c #BF8800",
"1 c #8D8A48",
"2 c #F1B272",
"3 c #77489B",
"4 c #718590",
"5 c #7F94A1",
"6 c #FFC58A",
/* pixels */
"****--------********************--------************************====************",
"****--------********************--------************************====************",
"****--------********************--------************************====************",
"****--------********************--------************************====************",
"------------********%%%%********------------****3333********************%%%%****",
"------------********%%%%********------------****3333********************%%%%****",
"------------********%%%%********------------****3333********************%%%%****",
"------------********%%%%********------------****3333********************%%%%****",
"****----********************----55554444,,,,,,,,,,,,****************--------****",
"****----********************----55554444,,,,,,,,,,,,****************--------****",
"****----********************----55554444,,,,,,,,,,,,****************--------****",
"****----********************----55554444,,,,,,,,,,,,****************--------****",
"3333********------------****55554444,,,,,,,,,,,,,,,,,,,,********----------------",
"3333********------------****55554444,,,,,,,,,,,,,,,,,,,,********----------------",
"3333********------------****55554444,,,,,,,,,,,,,,,,,,,,********----------------",
"3333********------------****55554444,,,,,,,,,,,,,,,,,,,,********----------------",
"****--------------------55554444,,,,,,,,,,,,,,,,111111111111****----------------",
"****--------------------55554444,,,,,,,,,,,,,,,,111111111111****----------------",
"****--------------------55554444,,,,,,,,,,,,,,,,111111111111****----------------",
"****--------------------55554444,,,,,,,,,,,,,,,,111111111111****----------------",
"------------------------4444,,,,,,,,,,,,,,,,11111111111111111111----------------",
"------------------------4444,,,,,,,,,,,,,,,,11111111111111111111----------------",
"------------------------4444,,,,,,,,,,,,,,,,11111111111111111111----------------",
"------------------------4444,,,,,,,,,,,,,,,,11111111111111111111----------------",
"------------------------,,,,,,,,,,,,,,,,,,,,11111111111111111111****--------****",
"------------------------,,,,,,,,,,,,,,,,,,,,11111111111111111111****--------****",
"------------------------,,,,,,,,,,,,,,,,,,,,11111111111111111111****--------****",
"------------------------,,,,,,,,,,,,,,,,,,,,11111111111111111111****--------****",
"------------------------,,,,,,,,,,,,,,,,,,,,11111111111111111111********----3333",
"------------------------,,,,,,,,,,,,,,,,,,,,11111111111111111111********----3333",
"------------------------,,,,,,,,,,,,,,,,,,,,11111111111111111111********----3333",
"------------------------,,,,,,,,,,,,,,,,,,,,11111111111111111111********----3333",
"--------------------    ,,,,,,,,,,,,,,,,,,,,11111111111111111111****************",
"--------------------    ,,,,,,,,,,,,,,,,,,,,11111111111111111111****************",
"--------------------    ,,,,,,,,,,,,,,,,,,,,11111111111111111111****************",
"--------------------    ,,,,,,,,,,,,,,,,,,,,11111111111111111111****************",
"****------------    $$$$####,,,,,,,,,,,,,,,,,,,,111111111111----********::::****",
"****------------    $$$$####,,,,,,,,,,,,,,,,,,,,111111111111----********::::****",
"****------------    $$$$####,,,,,,,,,,,,,,,,,,,,111111111111----********::::****",
"****------------    $$$$####,,,,,,,,,,,,,,,,,,,,111111111111----********::::****",
"************    ++++####$$$$$$$$$$$$$$$$,,,,,,,,,,,,,,,,--------****************",
"************    ++++####$$$$$$$$$$$$$$$$,,,,,,,,,,,,,,,,--------****************",
"************    ++++####$$$$$$$$$$$$$$$$,,,,,,,,,,,,,,,,--------****************",
"************    ++++####$$$$$$$$$$$$$$$$,,,,,,,,,,,,,,,,--------****************",
"****----****    @@@@@@@@++++########++++++++$$$$    --------********------------",
"****----****    @@@@@@@@++++########++++++++$$$$    --------********------------",
"****----****    @@@@@@@@++++########++++++++$$$$    --------********------------",
"****----****    @@@@@@@@++++########++++++++$$$$    --------********------------",
"****--------    <<<<oooooooo$$$$++++########++++$$$$    ********----------------",
"****--------    <<<<oooooooo$$$$++++########++++$$$$    ********----------------",
"****--------    <<<<oooooooo$$$$++++########++++$$$$    ********----------------",
"****--------    <<<<oooooooo$$$$++++########++++$$$$    ********----------------",
"&&&&********    oooo@@@@@@@@++++$$$$XXXXXXXX$$$$++++    ********----------------",
"&&&&********    oooo@@@@@@@@++++$$$$XXXXXXXX$$$$++++    ********----------------",
"&&&&********    oooo@@@@@@@@++++$$$$XXXXXXXX$$$$++++    ********----------------",
"&&&&********    oooo@@@@@@@@++++$$$$XXXXXXXX$$$$++++    ********----------------",
"------------    @@@@@@@@@@@@$$$$XXXX$$$$$$$$OOOO$$$$    ************--------****",
"------------    @@@@@@@@@@@@$$$$XXXX$$$$$$$$OOOO$$$$    ************--------****",
"------------    @@@@@@@@@@@@$$$$XXXX$$$$$$$$OOOO$$$$    ************--------****",
"------------    @@@@@@@@@@@@$$$$XXXX$$$$$$$$OOOO$$$$    ************--------****",
"------------    ....@@@@@@@@XXXX$$$$66666666OOOO++++    ************3333********",
"------------    ....@@@@@@@@XXXX$$$$66666666OOOO++++    ************3333********",
"------------    ....@@@@@@@@XXXX$$$$66666666OOOO++++    ************3333********",
"------------    ....@@@@@@@@XXXX$$$$66666666OOOO++++    ************3333********",
"----------------    ........$$$$    22222222    ####    3333********************",
"----------------    ........$$$$    22222222    ####    3333********************",
"----------------    ........$$$$    22222222    ####    3333********************",
"----------------    ........$$$$    22222222    ####    3333********************",
"****----------------            >>>>        >>>>        --------********----****",
"****----------------            >>>>        >>>>        --------********----****",
"****----------------            >>>>        >>>>        --------********----****",
"****----------------            >>>>        >>>>        --------********----****",
"****--------------------****    ;;;;;;;;;;;;;;;;    ----------------****--------",
"****--------------------****    ;;;;;;;;;;;;;;;;    ----------------****--------",
"****--------------------****    ;;;;;;;;;;;;;;;;    ----------------****--------",
"****--------------------****    ;;;;;;;;;;;;;;;;    ----------------****--------",
"************--------::::********                --------------------****--------",
"************--------::::********                --------------------****--------",
"************--------::::********                --------------------****--------",
"************--------::::********                --------------------****--------"
};
