/* XPM */
static const char *player_u[] = {
/* columns rows colors chars-per-pixel */
"80 80 25 1 ",
"  c black",
". c #292612",
"X c #3B361A",
"o c #492200",
"O c #572A00",
"+ c #522A05",
"@ c #443E1E",
"# c #643000",
"$ c #4D482A",
"% c #524B24",
"& c #770058",
"* c #771A53",
"= c #420075",
"- c #77007E",
"; c gray25",
": c #595652",
"> c #774053",
", c #696A6A",
"< c #63727B",
"1 c #BF8800",
"2 c #F1B272",
"3 c #77489B",
"4 c #718590",
"5 c #7F94A1",
"6 c #839BA8",
/* pixels */
"====;;;;;;;;====================;;;;;;;;========================----============",
"====;;;;;;;;====================;;;;;;;;========================----============",
"====;;;;;;;;====================;;;;;;;;========================----============",
"====;;;;;;;;====================;;;;;;;;========================----============",
";;;;;;;;;;;;========&&&&========;;;;;;;;;;;;====3333====================&&&&====",
";;;;;;;;;;;;========&&&&========;;;;;;;;;;;;====3333====================&&&&====",
";;;;;;;;;;;;========&&&&========;;;;;;;;;;;;====3333====================&&&&====",
";;;;;;;;;;;;========&&&&========;;;;;;;;;;;;====3333====================&&&&====",
"====;;;;================666655554444<<<<<<<<<<<<<<<<<<<<============;;;;;;;;====",
"====;;;;================666655554444<<<<<<<<<<<<<<<<<<<<============;;;;;;;;====",
"====;;;;================666655554444<<<<<<<<<<<<<<<<<<<<============;;;;;;;;====",
"====;;;;================666655554444<<<<<<<<<<<<<<<<<<<<============;;;;;;;;====",
"3333========;;;;;;;;666655554444<<<<<<<<<<<<<<<<<<<<<<<<<<<<====;;;;;;;;;;;;;;;;",
"3333========;;;;;;;;666655554444<<<<<<<<<<<<<<<<<<<<<<<<<<<<====;;;;;;;;;;;;;;;;",
"3333========;;;;;;;;666655554444<<<<<<<<<<<<<<<<<<<<<<<<<<<<====;;;;;;;;;;;;;;;;",
"3333========;;;;;;;;666655554444<<<<<<<<<<<<<<<<<<<<<<<<<<<<====;;;;;;;;;;;;;;;;",
"====;;;;;;;;;;;;666655554444<<<<<<<<<<<<<<<<<<<<<<<<<<<<<<<<<<<<;;;;;;;;;;;;;;;;",
"====;;;;;;;;;;;;666655554444<<<<<<<<<<<<<<<<<<<<<<<<<<<<<<<<<<<<;;;;;;;;;;;;;;;;",
"====;;;;;;;;;;;;666655554444<<<<<<<<<<<<<<<<<<<<<<<<<<<<<<<<<<<<;;;;;;;;;;;;;;;;",
"====;;;;;;;;;;;;666655554444<<<<<<<<<<<<<<<<<<<<<<<<<<<<<<<<<<<<;;;;;;;;;;;;;;;;",
";;;;;;;;;;;;;;;;55554444<<<<<<<<<<<<<<<<<<<<<<<<<<<<<<<<<<<<<<<<;;;;;;;;;;;;;;;;",
";;;;;;;;;;;;;;;;55554444<<<<<<<<<<<<<<<<<<<<<<<<<<<<<<<<<<<<<<<<;;;;;;;;;;;;;;;;",
";;;;;;;;;;;;;;;;55554444<<<<<<<<<<<<<<<<<<<<<<<<<<<<<<<<<<<<<<<<;;;;;;;;;;;;;;;;",
";;;;;;;;;;;;;;;;55554444<<<<<<<<<<<<<<<<<<<<<<<<<<<<<<<<<<<<<<<<;;;;;;;;;;;;;;;;",
";;;;;;;;;;;;;;;;4444<<<<<<<<<<<<<<<<<<<<<<<<<<<<<<<<<<<<<<<<<<<<====;;;;;;;;====",
";;;;;;;;;;;;;;;;4444<<<<<<<<<<<<<<<<<<<<<<<<<<<<<<<<<<<<<<<<<<<<====;;;;;;;;====",
";;;;;;;;;;;;;;;;4444<<<<<<<<<<<<<<<<<<<<<<<<<<<<<<<<<<<<<<<<<<<<====;;;;;;;;====",
";;;;;;;;;;;;;;;;4444<<<<<<<<<<<<<<<<<<<<<<<<<<<<<<<<<<<<<<<<<<<<====;;;;;;;;====",
";;;;;;;;;;;;;;;;<<<<<<<<<<<<<<<<<<<<<<<<<<<<<<<<<<<<<<<<<<<<<<<<========;;;;3333",
";;;;;;;;;;;;;;;;<<<<<<<<<<<<<<<<<<<<<<<<<<<<<<<<<<<<<<<<<<<<<<<<========;;;;3333",
";;;;;;;;;;;;;;;;<<<<<<<<<<<<<<<<<<<<<<<<<<<<<<<<<<<<<<<<<<<<<<<<========;;;;3333",
";;;;;;;;;;;;;;;;<<<<<<<<<<<<<<<<<<<<<<<<<<<<<<<<<<<<<<<<<<<<<<<<========;;;;3333",
";;;;;;;;;;;;;;;;<<<<<<<<<<<<<<<<<<<<<<<<<<<<<<<<<<<<<<<<<<<<<<<<================",
";;;;;;;;;;;;;;;;<<<<<<<<<<<<<<<<<<<<<<<<<<<<<<<<<<<<<<<<<<<<<<<<================",
";;;;;;;;;;;;;;;;<<<<<<<<<<<<<<<<<<<<<<<<<<<<<<<<<<<<<<<<<<<<<<<<================",
";;;;;;;;;;;;;;;;<<<<<<<<<<<<<<<<<<<<<<<<<<<<<<<<<<<<<<<<<<<<<<<<================",
"====;;;;;;;;;;;;<<<<@@@@@@@@%%%%<<<<<<<<<<<<<<<<%%%%%%%%$$$$<<<<========>>>>====",
"====;;;;;;;;;;;;<<<<@@@@@@@@%%%%<<<<<<<<<<<<<<<<%%%%%%%%$$$$<<<<========>>>>====",
"====;;;;;;;;;;;;<<<<@@@@@@@@%%%%<<<<<<<<<<<<<<<<%%%%%%%%$$$$<<<<========>>>>====",
"====;;;;;;;;;;;;<<<<@@@@@@@@%%%%<<<<<<<<<<<<<<<<%%%%%%%%$$$$<<<<========>>>>====",
"================    %%%%%%%%@@@@%%%%@@@@$$$$$$$$%%%%$$$$%%%%    ================",
"================    %%%%%%%%@@@@%%%%@@@@$$$$$$$$%%%%$$$$%%%%    ================",
"================    %%%%%%%%@@@@%%%%@@@@$$$$$$$$%%%%$$$$%%%%    ================",
"================    %%%%%%%%@@@@%%%%@@@@$$$$$$$$%%%%$$$$%%%%    ================",
"====;;;;====    @@@@%%%%XXXX++++################++++%%%%%%%%$$$$    ;;;;;;;;;;;;",
"====;;;;====    @@@@%%%%XXXX++++################++++%%%%%%%%$$$$    ;;;;;;;;;;;;",
"====;;;;====    @@@@%%%%XXXX++++################++++%%%%%%%%$$$$    ;;;;;;;;;;;;",
"====;;;;====    @@@@%%%%XXXX++++################++++%%%%%%%%$$$$    ;;;;;;;;;;;;",
"====;;;;;;;;    XXXXXXXX########++++11111111++++########....%%%%    ;;;;;;;;;;;;",
"====;;;;;;;;    XXXXXXXX########++++11111111++++########....%%%%    ;;;;;;;;;;;;",
"====;;;;;;;;    XXXXXXXX########++++11111111++++########....%%%%    ;;;;;;;;;;;;",
"====;;;;;;;;    XXXXXXXX########++++11111111++++########....%%%%    ;;;;;;;;;;;;",
"****========    @@@@%%%%OOOO########################OOOO%%%%....    ;;;;;;;;;;;;",
"****========    @@@@%%%%OOOO########################OOOO%%%%....    ;;;;;;;;;;;;",
"****========    @@@@%%%%OOOO########################OOOO%%%%....    ;;;;;;;;;;;;",
"****========    @@@@%%%%OOOO########################OOOO%%%%....    ;;;;;;;;;;;;",
";;;;;;;;;;;;    %%%%@@@@ooooOOOO################OOOOoooo@@@@%%%%    ;;;;;;;;====",
";;;;;;;;;;;;    %%%%@@@@ooooOOOO################OOOOoooo@@@@%%%%    ;;;;;;;;====",
";;;;;;;;;;;;    %%%%@@@@ooooOOOO################OOOOoooo@@@@%%%%    ;;;;;;;;====",
";;;;;;;;;;;;    %%%%@@@@ooooOOOO################OOOOoooo@@@@%%%%    ;;;;;;;;====",
";;;;;;;;;;;;    $$$$%%%%    ooooOOOOOOOOOOOOOOOOoooo    %%%%@@@@    3333========",
";;;;;;;;;;;;    $$$$%%%%    ooooOOOOOOOOOOOOOOOOoooo    %%%%@@@@    3333========",
";;;;;;;;;;;;    $$$$%%%%    ooooOOOOOOOOOOOOOOOOoooo    %%%%@@@@    3333========",
";;;;;;;;;;;;    $$$$%%%%    ooooOOOOOOOOOOOOOOOOoooo    %%%%@@@@    3333========",
";;;;;;;;;;;;    2222%%%%    @@@@oooooooooooooooo%%%%    %%%%2222    ============",
";;;;;;;;;;;;    2222%%%%    @@@@oooooooooooooooo%%%%    %%%%2222    ============",
";;;;;;;;;;;;    2222%%%%    @@@@oooooooooooooooo%%%%    %%%%2222    ============",
";;;;;;;;;;;;    2222%%%%    @@@@oooooooooooooooo%%%%    %%%%2222    ============",
"====;;;;;;;;;;;;        ,,,,        %%%%%%%%        ,,,,        ========;;;;====",
"====;;;;;;;;;;;;        ,,,,        %%%%%%%%        ,,,,        ========;;;;====",
"====;;;;;;;;;;;;        ,,,,        %%%%%%%%        ,,,,        ========;;;;====",
"====;;;;;;;;;;;;        ,,,,        %%%%%%%%        ,,,,        ========;;;;====",
"====;;;;;;;;;;;;;;;;    ::::::::::::        ::::::::::::    ;;;;;;;;====;;;;;;;;",
"====;;;;;;;;;;;;;;;;    ::::::::::::        ::::::::::::    ;;;;;;;;====;;;;;;;;",
"====;;;;;;;;;;;;;;;;    ::::::::::::        ::::::::::::    ;;;;;;;;====;;;;;;;;",
"====;;;;;;;;;;;;;;;;    ::::::::::::        ::::::::::::    ;;;;;;;;====;;;;;;;;",
"============;;;;;;;;>>>>            ========            ;;;;;;;;;;;;====;;;;;;;;",
"============;;;;;;;;>>>>            ========            ;;;;;;;;;;;;====;;;;;;;;",
"============;;;;;;;;>>>>            ========            ;;;;;;;;;;;;====;;;;;;;;",
"============;;;;;;;;>>>>            ========            ;;;;;;;;;;;;====;;;;;;;;"
};
