/* XPM */
static const char *player_re[] = {
/* columns rows colors chars-per-pixel */
"80 80 26 1 ",
"  c #420075",
". c gray25",
"X c #77007E",
"o c #38002B",
"O c #770058",
"+ c #7F94A1",
"@ c #718590",
"# c #63727B",
"$ c #77489B",
"% c black",
"& c #8D8A48",
"* c #524B24",
"= c #4D482A",
"- c #774053",
"; c #443E1E",
": c #643000",
"> c #BF8800",
", c #522A05",
"< c #771A53",
"1 c #3B361A",
"2 c #442816",
"3 c #371A00",
"4 c #FFC58A",
"5 c #F1B272",
"6 c #696A6A",
"7 c #595652",
/* pixels */
"    ........                    ........                        XXXX            ",
"    ........                    ........                        XXXX            ",
"    ........                    ........                        XXXX            ",
"    ........                    ........                        XXXX            ",
"............oooo    OOOO        ............    oooo                    OOOO    ",
"............oooo    OOOO        ............    oooo                    OOOO    ",
"............oooo    OOOO        ............    oooo                    OOOO    ",
"............oooo    OOOO        ............    oooo                    OOOO    ",
"    ....        oooooooooooooooo++++@@@@############oooo            ........    ",
"    ....        oooooooooooooooo++++@@@@############oooo            ........    ",
"    ....        oooooooooooooooo++++@@@@############oooo            ........    ",
"    ....        oooooooooooooooo++++@@@@############oooo            ........    ",
"$$$$        ........%%%%%%%%++++@@@@####################oooo    ................",
"$$$$        ........%%%%%%%%++++@@@@####################oooo    ................",
"$$$$        ........%%%%%%%%++++@@@@####################oooo    ................",
"$$$$        ........%%%%%%%%++++@@@@####################oooo    ................",
"    ............%%%%%%%%++++@@@@################&&&&&&&&&&&&    ................",
"    ............%%%%%%%%++++@@@@################&&&&&&&&&&&&    ................",
"    ............%%%%%%%%++++@@@@################&&&&&&&&&&&&    ................",
"    ............%%%%%%%%++++@@@@################&&&&&&&&&&&&    ................",
"............oooooooooooo@@@@################&&&&&&&&&&&&&&&&&&&&....oooo........",
"............oooooooooooo@@@@################&&&&&&&&&&&&&&&&&&&&....oooo........",
"............oooooooooooo@@@@################&&&&&&&&&&&&&&&&&&&&....oooo........",
"............oooooooooooo@@@@################&&&&&&&&&&&&&&&&&&&&....oooo........",
"....oooooooo%%%%%%%%%%%%####################&&&&&&&&&&&&&&&&&&&&    oooo....    ",
"....oooooooo%%%%%%%%%%%%####################&&&&&&&&&&&&&&&&&&&&    oooo....    ",
"....oooooooo%%%%%%%%%%%%####################&&&&&&&&&&&&&&&&&&&&    oooo....    ",
"....oooooooo%%%%%%%%%%%%####################&&&&&&&&&&&&&&&&&&&&    oooo....    ",
"oooo....%%%%%%%%%%%%%%%%####################&&&&&&&&&&&&&&&&&&&&%%%%    ....$$$$",
"oooo....%%%%%%%%%%%%%%%%####################&&&&&&&&&&&&&&&&&&&&%%%%    ....$$$$",
"oooo....%%%%%%%%%%%%%%%%####################&&&&&&&&&&&&&&&&&&&&%%%%    ....$$$$",
"oooo....%%%%%%%%%%%%%%%%####################&&&&&&&&&&&&&&&&&&&&%%%%    ....$$$$",
"........%%%%%%%%oooo%%%%####################&&&&&&&&&&&&&&&&&&&&oooo            ",
"........%%%%%%%%oooo%%%%####################&&&&&&&&&&&&&&&&&&&&oooo            ",
"........%%%%%%%%oooo%%%%####################&&&&&&&&&&&&&&&&&&&&oooo            ",
"........%%%%%%%%oooo%%%%####################&&&&&&&&&&&&&&&&&&&&oooo            ",
"    ....%%%%oooo%%%%****====####################&&&&&&&&&&&&%%%%%%%%    ----    ",
"    ....%%%%oooo%%%%****====####################&&&&&&&&&&&&%%%%%%%%    ----    ",
"    ....%%%%oooo%%%%****====####################&&&&&&&&&&&&%%%%%%%%    ----    ",
"    ....%%%%oooo%%%%****====####################&&&&&&&&&&&&%%%%%%%%    ----    ",
"        oooo%%%%;;;;====****************################%%%%%%%%%%%%            ",
"        oooo%%%%;;;;====****************################%%%%%%%%%%%%            ",
"        oooo%%%%;;;;====****************################%%%%%%%%%%%%            ",
"        oooo%%%%;;;;====****************################%%%%%%%%%%%%            ",
"    oooo%%%%%%%%::::::::;;;;========;;;;;;;;****%%%%%%%%%%%%%%%%%%%%............",
"    oooo%%%%%%%%::::::::;;;;========;;;;;;;;****%%%%%%%%%%%%%%%%%%%%............",
"    oooo%%%%%%%%::::::::;;;;========;;;;;;;;****%%%%%%%%%%%%%%%%%%%%............",
"    oooo%%%%%%%%::::::::;;;;========;;;;;;;;****%%%%%%%%%%%%%%%%%%%%............",
"    oooo....%%%%>>>>,,,,,,,,****;;;;========;;;;****%%%%%%%%%%%%................",
"    oooo....%%%%>>>>,,,,,,,,****;;;;========;;;;****%%%%%%%%%%%%................",
"    oooo....%%%%>>>>,,,,,,,,****;;;;========;;;;****%%%%%%%%%%%%................",
"    oooo....%%%%>>>>,,,,,,,,****;;;;========;;;;****%%%%%%%%%%%%................",
"<<<<oooo    %%%%,,,,::::::::;;;;****11111111****;;;;%%%%%%%%%%%%........oooo....",
"<<<<oooo    %%%%,,,,::::::::;;;;****11111111****;;;;%%%%%%%%%%%%........oooo....",
"<<<<oooo    %%%%,,,,::::::::;;;;****11111111****;;;;%%%%%%%%%%%%........oooo....",
"<<<<oooo    %%%%,,,,::::::::;;;;****11111111****;;;;%%%%%%%%%%%%........oooo....",
"........oooo%%%%::::::::::::****1111********2222****%%%%oooooooooooooooo....    ",
"........oooo%%%%::::::::::::****1111********2222****%%%%oooooooooooooooo....    ",
"........oooo%%%%::::::::::::****1111********2222****%%%%oooooooooooooooo....    ",
"........oooo%%%%::::::::::::****1111********2222****%%%%oooooooooooooooo....    ",
"............%%%%3333::::::::1111****444444442222;;;;%%%%            $$$$        ",
"............%%%%3333::::::::1111****444444442222;;;;%%%%            $$$$        ",
"............%%%%3333::::::::1111****444444442222;;;;%%%%            $$$$        ",
"............%%%%3333::::::::1111****444444442222;;;;%%%%            $$$$        ",
"............oooo%%%%33333333****%%%%55555555%%%%====%%%%$$$$                    ",
"............oooo%%%%33333333****%%%%55555555%%%%====%%%%$$$$                    ",
"............oooo%%%%33333333****%%%%55555555%%%%====%%%%$$$$                    ",
"............oooo%%%%33333333****%%%%55555555%%%%====%%%%$$$$                    ",
"    ................%%%%%%%%%%%%6666%%%%%%%%6666%%%%%%%%........        ....    ",
"    ................%%%%%%%%%%%%6666%%%%%%%%6666%%%%%%%%........        ....    ",
"    ................%%%%%%%%%%%%6666%%%%%%%%6666%%%%%%%%........        ....    ",
"    ................%%%%%%%%%%%%6666%%%%%%%%6666%%%%%%%%........        ....    ",
"    ....................    %%%%7777777777777777%%%%................    ........",
"    ....................    %%%%7777777777777777%%%%................    ........",
"    ....................    %%%%7777777777777777%%%%................    ........",
"    ....................    %%%%7777777777777777%%%%................    ........",
"            ........----        %%%%%%%%%%%%%%%%....................    ........",
"            ........----        %%%%%%%%%%%%%%%%....................    ........",
"            ........----        %%%%%%%%%%%%%%%%....................    ........",
"            ........----        %%%%%%%%%%%%%%%%....................    ........"
};
