/* XPM */
static const char *player_l2[] = {
/* columns rows colors chars-per-pixel */
"20 20 20 1 ",
"  c black",
". c #371A00",
"X c #3B361A",
"o c #522A05",
"O c #443E1E",
"+ c #643000",
"@ c #4D482A",
"# c #524B24",
"$ c #595652",
"% c #696A6A",
"& c #63727B",
"* c #BF8800",
"= c #8D8A48",
"- c #9F9C54",
"; c #B2AE59",
": c #F1B272",
"> c #718590",
", c #7F94A1",
"< c #FFC58A",
"1 c None",
/* pixels */
"11111111111111111111",
"11111111111111111111",
"1111111,>&&&11111111",
"111111,>&&&&&1111111",
"11111;-=&&&&&&111111",
"1111;-===&&&&&111111",
"1111-====&&&&&111111",
"1111=====&&&&&111111",
"1111=====&&&&& 11111",
"11111===&&&&&@# 1111",
"111111&&&&####@O 111",
"1111111 #OO@@O++ 111",
"111111 #O@@O#oo* 111",
"111111 O#XX#O++o 111",
"111111 #X##X#+++ 111",
"111111 X@<<#X++. 111",
"111111 @ :: #.. 1111",
"111111  %  %%%% 1111",
"111111 $$$ $$$$ 1111",
"1111111        11111"
};
