/* XPM */
static const char *player_d1[] = {
/* columns rows colors chars-per-pixel */
"20 20 20 1 ",
"  c black",
". c #292612",
"X c #3B361A",
"o c #442816",
"O c #4D301D",
"+ c #443E1E",
"@ c #4D482A",
"# c #524B24",
"$ c #595652",
"% c #696A6A",
"& c #63727B",
"* c #8D8A48",
"= c #9F9C54",
"- c #B2AE59",
"; c #F1B272",
": c #718590",
"> c #7F94A1",
", c #839BA8",
"< c #FFC58A",
"1 c None",
/* pixels */
"11111111111111111111",
"111111,>:&&&&&111111",
"11111,>:&&&&&&&11111",
"1111,>:-=****&&&1111",
"1111>:-=******&&1111",
"1111:&=*******&&1111",
"1111&&********&&1111",
"1111&&********&&1111",
"1111&++#****##@&1111",
"1111 ####++#@@# 1111",
"111 +#++###+##@@ 111",
"111 XX##++##@#.# 111",
"111 +#XX##++#@#. 111",
"111 #+O+XX##+++# 111",
"111 @<oO+#XX# <+ 111",
"111 ;;oO.+++# ;; 111",
"1111  %  ##  %  1111",
"111111     $$$ 11111",
"11111111111   111111",
"11111111111111111111"
};
