/* XPM */
static const char *player_l[] = {
/* columns rows colors chars-per-pixel */
"80 80 26 1 ",
"  c black",
". c #371A00",
"X c #3B361A",
"o c #522A05",
"O c #443E1E",
"+ c #643000",
"@ c #4D482A",
"# c #524B24",
"$ c #770058",
"% c #771A53",
"& c #420075",
"* c #77007E",
"= c gray25",
"- c #595652",
"; c #774053",
": c #696A6A",
"> c #63727B",
", c #BF8800",
"< c #8D8A48",
"1 c #9F9C54",
"2 c #B2AE59",
"3 c #F1B272",
"4 c #77489B",
"5 c #718590",
"6 c #7F94A1",
"7 c #FFC58A",
/* pixels */
"&&&&========&&&&&&&&&&&&&&&&&&&&========&&&&&&&&&&&&&&&&&&&&&&&&****&&&&&&&&&&&&",
"&&&&========&&&&&&&&&&&&&&&&&&&&========&&&&&&&&&&&&&&&&&&&&&&&&****&&&&&&&&&&&&",
"&&&&========&&&&&&&&&&&&&&&&&&&&========&&&&&&&&&&&&&&&&&&&&&&&&****&&&&&&&&&&&&",
"&&&&========&&&&&&&&&&&&&&&&&&&&========&&&&&&&&&&&&&&&&&&&&&&&&****&&&&&&&&&&&&",
"============&&&&&&&&$$$$&&&&&&&&============&&&&4444&&&&&&&&&&&&&&&&&&&&$$$$&&&&",
"============&&&&&&&&$$$$&&&&&&&&============&&&&4444&&&&&&&&&&&&&&&&&&&&$$$$&&&&",
"============&&&&&&&&$$$$&&&&&&&&============&&&&4444&&&&&&&&&&&&&&&&&&&&$$$$&&&&",
"============&&&&&&&&$$$$&&&&&&&&============&&&&4444&&&&&&&&&&&&&&&&&&&&$$$$&&&&",
"&&&&====&&&&&&&&&&&&&&&&&&&&66665555>>>>>>>>>>>>&&&&&&&&&&&&&&&&&&&&========&&&&",
"&&&&====&&&&&&&&&&&&&&&&&&&&66665555>>>>>>>>>>>>&&&&&&&&&&&&&&&&&&&&========&&&&",
"&&&&====&&&&&&&&&&&&&&&&&&&&66665555>>>>>>>>>>>>&&&&&&&&&&&&&&&&&&&&========&&&&",
"&&&&====&&&&&&&&&&&&&&&&&&&&66665555>>>>>>>>>>>>&&&&&&&&&&&&&&&&&&&&========&&&&",
"4444&&&&&&&&============66665555>>>>>>>>>>>>>>>>>>>>&&&&&&&&&&&&================",
"4444&&&&&&&&============66665555>>>>>>>>>>>>>>>>>>>>&&&&&&&&&&&&================",
"4444&&&&&&&&============66665555>>>>>>>>>>>>>>>>>>>>&&&&&&&&&&&&================",
"4444&&&&&&&&============66665555>>>>>>>>>>>>>>>>>>>>&&&&&&&&&&&&================",
"&&&&================22221111<<<<>>>>>>>>>>>>>>>>>>>>>>>>&&&&&&&&================",
"&&&&================22221111<<<<>>>>>>>>>>>>>>>>>>>>>>>>&&&&&&&&================",
"&&&&================22221111<<<<>>>>>>>>>>>>>>>>>>>>>>>>&&&&&&&&================",
"&&&&================22221111<<<<>>>>>>>>>>>>>>>>>>>>>>>>&&&&&&&&================",
"================22221111<<<<<<<<<<<<>>>>>>>>>>>>>>>>>>>>====&&&&================",
"================22221111<<<<<<<<<<<<>>>>>>>>>>>>>>>>>>>>====&&&&================",
"================22221111<<<<<<<<<<<<>>>>>>>>>>>>>>>>>>>>====&&&&================",
"================22221111<<<<<<<<<<<<>>>>>>>>>>>>>>>>>>>>====&&&&================",
"================1111<<<<<<<<<<<<<<<<>>>>>>>>>>>>>>>>>>>>====$$$$&&&&========&&&&",
"================1111<<<<<<<<<<<<<<<<>>>>>>>>>>>>>>>>>>>>====$$$$&&&&========&&&&",
"================1111<<<<<<<<<<<<<<<<>>>>>>>>>>>>>>>>>>>>====$$$$&&&&========&&&&",
"================1111<<<<<<<<<<<<<<<<>>>>>>>>>>>>>>>>>>>>====$$$$&&&&========&&&&",
"================<<<<<<<<<<<<<<<<<<<<>>>>>>>>>>>>>>>>>>>>====&&&&&&&&&&&&====4444",
"================<<<<<<<<<<<<<<<<<<<<>>>>>>>>>>>>>>>>>>>>====&&&&&&&&&&&&====4444",
"================<<<<<<<<<<<<<<<<<<<<>>>>>>>>>>>>>>>>>>>>====&&&&&&&&&&&&====4444",
"================<<<<<<<<<<<<<<<<<<<<>>>>>>>>>>>>>>>>>>>>====&&&&&&&&&&&&====4444",
"================<<<<<<<<<<<<<<<<<<<<>>>>>>>>>>>>>>>>>>>>    &&&&&&&&&&&&&&&&&&&&",
"================<<<<<<<<<<<<<<<<<<<<>>>>>>>>>>>>>>>>>>>>    &&&&&&&&&&&&&&&&&&&&",
"================<<<<<<<<<<<<<<<<<<<<>>>>>>>>>>>>>>>>>>>>    &&&&&&&&&&&&&&&&&&&&",
"================<<<<<<<<<<<<<<<<<<<<>>>>>>>>>>>>>>>>>>>>    &&&&&&&&&&&&&&&&&&&&",
"&&&&============&&&&<<<<<<<<<<<<>>>>>>>>>>>>>>>>>>>>@@@@####    &&&&&&&&;;;;&&&&",
"&&&&============&&&&<<<<<<<<<<<<>>>>>>>>>>>>>>>>>>>>@@@@####    &&&&&&&&;;;;&&&&",
"&&&&============&&&&<<<<<<<<<<<<>>>>>>>>>>>>>>>>>>>>@@@@####    &&&&&&&&;;;;&&&&",
"&&&&============&&&&<<<<<<<<<<<<>>>>>>>>>>>>>>>>>>>>@@@@####    &&&&&&&&;;;;&&&&",
"&&&&&&&&&&&&&&&&&&&&&&&&>>>>>>>>>>>>>>>>################@@@@OOOO    &&&&&&&&&&&&",
"&&&&&&&&&&&&&&&&&&&&&&&&>>>>>>>>>>>>>>>>################@@@@OOOO    &&&&&&&&&&&&",
"&&&&&&&&&&&&&&&&&&&&&&&&>>>>>>>>>>>>>>>>################@@@@OOOO    &&&&&&&&&&&&",
"&&&&&&&&&&&&&&&&&&&&&&&&>>>>>>>>>>>>>>>>################@@@@OOOO    &&&&&&&&&&&&",
"&&&&====&&&&&&&&&&&&========    ####OOOOOOOO@@@@@@@@OOOO++++++++    ============",
"&&&&====&&&&&&&&&&&&========    ####OOOOOOOO@@@@@@@@OOOO++++++++    ============",
"&&&&====&&&&&&&&&&&&========    ####OOOOOOOO@@@@@@@@OOOO++++++++    ============",
"&&&&====&&&&&&&&&&&&========    ####OOOOOOOO@@@@@@@@OOOO++++++++    ============",
"&&&&========;;;;&&&&====    ####OOOO@@@@@@@@OOOO####oooooooo,,,,    ============",
"&&&&========;;;;&&&&====    ####OOOO@@@@@@@@OOOO####oooooooo,,,,    ============",
"&&&&========;;;;&&&&====    ####OOOO@@@@@@@@OOOO####oooooooo,,,,    ============",
"&&&&========;;;;&&&&====    ####OOOO@@@@@@@@OOOO####oooooooo,,,,    ============",
"%%%%&&&&&&&&&&&&&&&&&&&&    OOOO####XXXXXXXX####OOOO++++++++oooo    ============",
"%%%%&&&&&&&&&&&&&&&&&&&&    OOOO####XXXXXXXX####OOOO++++++++oooo    ============",
"%%%%&&&&&&&&&&&&&&&&&&&&    OOOO####XXXXXXXX####OOOO++++++++oooo    ============",
"%%%%&&&&&&&&&&&&&&&&&&&&    OOOO####XXXXXXXX####OOOO++++++++oooo    ============",
"================4444&&&&    ####XXXX########XXXX####++++++++++++    ========&&&&",
"================4444&&&&    ####XXXX########XXXX####++++++++++++    ========&&&&",
"================4444&&&&    ####XXXX########XXXX####++++++++++++    ========&&&&",
"================4444&&&&    ####XXXX########XXXX####++++++++++++    ========&&&&",
"========================    XXXX@@@@77777777####XXXX++++++++....    4444&&&&&&&&",
"========================    XXXX@@@@77777777####XXXX++++++++....    4444&&&&&&&&",
"========================    XXXX@@@@77777777####XXXX++++++++....    4444&&&&&&&&",
"========================    XXXX@@@@77777777####XXXX++++++++....    4444&&&&&&&&",
"========================    @@@@    33333333    ####........    &&&&&&&&&&&&&&&&",
"========================    @@@@    33333333    ####........    &&&&&&&&&&&&&&&&",
"========================    @@@@    33333333    ####........    &&&&&&&&&&&&&&&&",
"========================    @@@@    33333333    ####........    &&&&&&&&&&&&&&&&",
"&&&&====================        ::::        ::::            ====&&&&&&&&====&&&&",
"&&&&====================        ::::        ::::            ====&&&&&&&&====&&&&",
"&&&&====================        ::::        ::::            ====&&&&&&&&====&&&&",
"&&&&====================        ::::        ::::            ====&&&&&&&&====&&&&",
"&&&&====================&&&&    ----------------    ================&&&&========",
"&&&&====================&&&&    ----------------    ================&&&&========",
"&&&&====================&&&&    ----------------    ================&&&&========",
"&&&&====================&&&&    ----------------    ================&&&&========",
"&&&&&&&&&&&&========;;;;&&&&&&&&                ====================&&&&========",
"&&&&&&&&&&&&========;;;;&&&&&&&&                ====================&&&&========",
"&&&&&&&&&&&&========;;;;&&&&&&&&                ====================&&&&========",
"&&&&&&&&&&&&========;;;;&&&&&&&&                ====================&&&&========"
};
