/* XPM */
static const char *player_d[] = {
/* columns rows colors chars-per-pixel */
"80 80 26 1 ",
"  c black",
". c #292612",
"X c #3B361A",
"o c #442816",
"O c #4D301D",
"+ c #443E1E",
"@ c #4D482A",
"# c #524B24",
"$ c #770058",
"% c #771A53",
"& c #420075",
"* c #77007E",
"= c gray25",
"- c #595652",
"; c #774053",
": c #696A6A",
"> c #63727B",
", c #8D8A48",
"< c #9F9C54",
"1 c #B2AE59",
"2 c #F1B272",
"3 c #77489B",
"4 c #718590",
"5 c #7F94A1",
"6 c #839BA8",
"7 c #FFC58A",
/* pixels */
"&&&&========&&&&&&&&&&&&&&&&&&&&========&&&&&&&&&&&&&&&&&&&&&&&&****&&&&&&&&&&&&",
"&&&&========&&&&&&&&&&&&&&&&&&&&========&&&&&&&&&&&&&&&&&&&&&&&&****&&&&&&&&&&&&",
"&&&&========&&&&&&&&&&&&&&&&&&&&========&&&&&&&&&&&&&&&&&&&&&&&&****&&&&&&&&&&&&",
"&&&&========&&&&&&&&&&&&&&&&&&&&========&&&&&&&&&&&&&&&&&&&&&&&&****&&&&&&&&&&&&",
"============&&&&&&&&$$$$&&&&&&&&============&&&&3333&&&&&&&&&&&&&&&&&&&&$$$$&&&&",
"============&&&&&&&&$$$$&&&&&&&&============&&&&3333&&&&&&&&&&&&&&&&&&&&$$$$&&&&",
"============&&&&&&&&$$$$&&&&&&&&============&&&&3333&&&&&&&&&&&&&&&&&&&&$$$$&&&&",
"============&&&&&&&&$$$$&&&&&&&&============&&&&3333&&&&&&&&&&&&&&&&&&&&$$$$&&&&",
"&&&&====&&&&&&&&&&&&&&&&666655554444>>>>>>>>>>>>>>>>>>>>&&&&&&&&&&&&========&&&&",
"&&&&====&&&&&&&&&&&&&&&&666655554444>>>>>>>>>>>>>>>>>>>>&&&&&&&&&&&&========&&&&",
"&&&&====&&&&&&&&&&&&&&&&666655554444>>>>>>>>>>>>>>>>>>>>&&&&&&&&&&&&========&&&&",
"&&&&====&&&&&&&&&&&&&&&&666655554444>>>>>>>>>>>>>>>>>>>>&&&&&&&&&&&&========&&&&",
"3333&&&&&&&&========666655554444>>>>>>>>>>>>>>>>>>>>>>>>>>>>&&&&================",
"3333&&&&&&&&========666655554444>>>>>>>>>>>>>>>>>>>>>>>>>>>>&&&&================",
"3333&&&&&&&&========666655554444>>>>>>>>>>>>>>>>>>>>>>>>>>>>&&&&================",
"3333&&&&&&&&========666655554444>>>>>>>>>>>>>>>>>>>>>>>>>>>>&&&&================",
"&&&&============6666555544441111<<<<,,,,,,,,,,,,,,,,>>>>>>>>>>>>================",
"&&&&============6666555544441111<<<<,,,,,,,,,,,,,,,,>>>>>>>>>>>>================",
"&&&&============6666555544441111<<<<,,,,,,,,,,,,,,,,>>>>>>>>>>>>================",
"&&&&============6666555544441111<<<<,,,,,,,,,,,,,,,,>>>>>>>>>>>>================",
"================555544441111<<<<,,,,,,,,,,,,,,,,,,,,,,,,>>>>>>>>================",
"================555544441111<<<<,,,,,,,,,,,,,,,,,,,,,,,,>>>>>>>>================",
"================555544441111<<<<,,,,,,,,,,,,,,,,,,,,,,,,>>>>>>>>================",
"================555544441111<<<<,,,,,,,,,,,,,,,,,,,,,,,,>>>>>>>>================",
"================4444>>>><<<<,,,,,,,,,,,,,,,,,,,,,,,,,,,,>>>>>>>>&&&&========&&&&",
"================4444>>>><<<<,,,,,,,,,,,,,,,,,,,,,,,,,,,,>>>>>>>>&&&&========&&&&",
"================4444>>>><<<<,,,,,,,,,,,,,,,,,,,,,,,,,,,,>>>>>>>>&&&&========&&&&",
"================4444>>>><<<<,,,,,,,,,,,,,,,,,,,,,,,,,,,,>>>>>>>>&&&&========&&&&",
"================>>>>>>>>,,,,,,,,,,,,,,,,,,,,,,,,,,,,,,,,>>>>>>>>&&&&&&&&====3333",
"================>>>>>>>>,,,,,,,,,,,,,,,,,,,,,,,,,,,,,,,,>>>>>>>>&&&&&&&&====3333",
"================>>>>>>>>,,,,,,,,,,,,,,,,,,,,,,,,,,,,,,,,>>>>>>>>&&&&&&&&====3333",
"================>>>>>>>>,,,,,,,,,,,,,,,,,,,,,,,,,,,,,,,,>>>>>>>>&&&&&&&&====3333",
"================>>>>>>>>,,,,,,,,,,,,,,,,,,,,,,,,,,,,,,,,>>>>>>>>&&&&&&&&&&&&&&&&",
"================>>>>>>>>,,,,,,,,,,,,,,,,,,,,,,,,,,,,,,,,>>>>>>>>&&&&&&&&&&&&&&&&",
"================>>>>>>>>,,,,,,,,,,,,,,,,,,,,,,,,,,,,,,,,>>>>>>>>&&&&&&&&&&&&&&&&",
"================>>>>>>>>,,,,,,,,,,,,,,,,,,,,,,,,,,,,,,,,>>>>>>>>&&&&&&&&&&&&&&&&",
"&&&&============>>>>++++++++####,,,,,,,,,,,,,,,,########@@@@>>>>&&&&&&&&;;;;&&&&",
"&&&&============>>>>++++++++####,,,,,,,,,,,,,,,,########@@@@>>>>&&&&&&&&;;;;&&&&",
"&&&&============>>>>++++++++####,,,,,,,,,,,,,,,,########@@@@>>>>&&&&&&&&;;;;&&&&",
"&&&&============>>>>++++++++####,,,,,,,,,,,,,,,,########@@@@>>>>&&&&&&&&;;;;&&&&",
"&&&&&&&&&&&&&&&&    ################++++++++####@@@@@@@@####    &&&&&&&&&&&&&&&&",
"&&&&&&&&&&&&&&&&    ################++++++++####@@@@@@@@####    &&&&&&&&&&&&&&&&",
"&&&&&&&&&&&&&&&&    ################++++++++####@@@@@@@@####    &&&&&&&&&&&&&&&&",
"&&&&&&&&&&&&&&&&    ################++++++++####@@@@@@@@####    &&&&&&&&&&&&&&&&",
"&&&&====&&&&    ++++####++++++++############++++########@@@@@@@@    ============",
"&&&&====&&&&    ++++####++++++++############++++########@@@@@@@@    ============",
"&&&&====&&&&    ++++####++++++++############++++########@@@@@@@@    ============",
"&&&&====&&&&    ++++####++++++++############++++########@@@@@@@@    ============",
"&&&&========    XXXXXXXX########++++++++########@@@@####....####    ============",
"&&&&========    XXXXXXXX########++++++++########@@@@####....####    ============",
"&&&&========    XXXXXXXX########++++++++########@@@@####....####    ============",
"&&&&========    XXXXXXXX########++++++++########@@@@####....####    ============",
"%%%%&&&&&&&&    ++++####XXXXXXXX########++++++++####@@@@####....    ============",
"%%%%&&&&&&&&    ++++####XXXXXXXX########++++++++####@@@@####....    ============",
"%%%%&&&&&&&&    ++++####XXXXXXXX########++++++++####@@@@####....    ============",
"%%%%&&&&&&&&    ++++####XXXXXXXX########++++++++####@@@@####....    ============",
"============    ####++++OOOO++++XXXXXXXX########++++++++++++####    ========&&&&",
"============    ####++++OOOO++++XXXXXXXX########++++++++++++####    ========&&&&",
"============    ####++++OOOO++++XXXXXXXX########++++++++++++####    ========&&&&",
"============    ####++++OOOO++++XXXXXXXX########++++++++++++####    ========&&&&",
"============    @@@@7777ooooOOOO++++####XXXXXXXX####    7777++++    3333&&&&&&&&",
"============    @@@@7777ooooOOOO++++####XXXXXXXX####    7777++++    3333&&&&&&&&",
"============    @@@@7777ooooOOOO++++####XXXXXXXX####    7777++++    3333&&&&&&&&",
"============    @@@@7777ooooOOOO++++####XXXXXXXX####    7777++++    3333&&&&&&&&",
"============    22222222ooooOOOO....++++++++++++####    22222222    &&&&&&&&&&&&",
"============    22222222ooooOOOO....++++++++++++####    22222222    &&&&&&&&&&&&",
"============    22222222ooooOOOO....++++++++++++####    22222222    &&&&&&&&&&&&",
"============    22222222ooooOOOO....++++++++++++####    22222222    &&&&&&&&&&&&",
"&&&&============        ::::        ########        ::::        &&&&&&&&====&&&&",
"&&&&============        ::::        ########        ::::        &&&&&&&&====&&&&",
"&&&&============        ::::        ########        ::::        &&&&&&&&====&&&&",
"&&&&============        ::::        ########        ::::        &&&&&&&&====&&&&",
"&&&&================    ------------        ------------    ========&&&&========",
"&&&&================    ------------        ------------    ========&&&&========",
"&&&&================    ------------        ------------    ========&&&&========",
"&&&&================    ------------        ------------    ========&&&&========",
"&&&&&&&&&&&&========;;;;            &&&&&&&&            ============&&&&========",
"&&&&&&&&&&&&========;;;;            &&&&&&&&            ============&&&&========",
"&&&&&&&&&&&&========;;;;            &&&&&&&&            ============&&&&========",
"&&&&&&&&&&&&========;;;;            &&&&&&&&            ============&&&&========"
};
