/* XPM */
static const char *player_de[] = {
/* columns rows colors chars-per-pixel */
"80 80 27 1 ",
"  c #420075",
". c gray25",
"X c #77007E",
"o c #38002B",
"O c #770058",
"+ c #839BA8",
"@ c #7F94A1",
"# c #718590",
"$ c #63727B",
"% c #77489B",
"& c #B2AE59",
"* c #9F9C54",
"= c #8D8A48",
"- c black",
"; c #443E1E",
": c #524B24",
"> c #4D482A",
", c #774053",
"< c #3B361A",
"1 c #292612",
"2 c #771A53",
"3 c #4D301D",
"4 c #FFC58A",
"5 c #442816",
"6 c #F1B272",
"7 c #696A6A",
"8 c #595652",
/* pixels */
"    ........                    ........                        XXXX            ",
"    ........                    ........                        XXXX            ",
"    ........                    ........                        XXXX            ",
"    ........                    ........                        XXXX            ",
"............oooo    OOOO        ............    oooo                    OOOO    ",
"............oooo    OOOO        ............    oooo                    OOOO    ",
"............oooo    OOOO        ............    oooo                    OOOO    ",
"............oooo    OOOO        ............    oooo                    OOOO    ",
"    ....        oooooooo++++@@@@####$$$$$$$$$$$$$$$$$$$$            ........    ",
"    ....        oooooooo++++@@@@####$$$$$$$$$$$$$$$$$$$$            ........    ",
"    ....        oooooooo++++@@@@####$$$$$$$$$$$$$$$$$$$$            ........    ",
"    ....        oooooooo++++@@@@####$$$$$$$$$$$$$$$$$$$$            ........    ",
"%%%%        ........++++@@@@####$$$$$$$$$$$$$$$$$$$$$$$$$$$$    ................",
"%%%%        ........++++@@@@####$$$$$$$$$$$$$$$$$$$$$$$$$$$$    ................",
"%%%%        ........++++@@@@####$$$$$$$$$$$$$$$$$$$$$$$$$$$$    ................",
"%%%%        ........++++@@@@####$$$$$$$$$$$$$$$$$$$$$$$$$$$$    ................",
"    ............++++@@@@####&&&&****================$$$$$$$$$$$$................",
"    ............++++@@@@####&&&&****================$$$$$$$$$$$$................",
"    ............++++@@@@####&&&&****================$$$$$$$$$$$$................",
"    ............++++@@@@####&&&&****================$$$$$$$$$$$$................",
"............oooo@@@@####&&&&****========================$$$$$$$$....oooo........",
"............oooo@@@@####&&&&****========================$$$$$$$$....oooo........",
"............oooo@@@@####&&&&****========================$$$$$$$$....oooo........",
"............oooo@@@@####&&&&****========================$$$$$$$$....oooo........",
"....oooooooo----####$$$$****============================$$$$$$$$    oooo....    ",
"....oooooooo----####$$$$****============================$$$$$$$$    oooo....    ",
"....oooooooo----####$$$$****============================$$$$$$$$    oooo....    ",
"....oooooooo----####$$$$****============================$$$$$$$$    oooo....    ",
"oooo....--------$$$$$$$$================================$$$$$$$$----    ....%%%%",
"oooo....--------$$$$$$$$================================$$$$$$$$----    ....%%%%",
"oooo....--------$$$$$$$$================================$$$$$$$$----    ....%%%%",
"oooo....--------$$$$$$$$================================$$$$$$$$----    ....%%%%",
"........--------$$$$$$$$================================$$$$$$$$oooo            ",
"........--------$$$$$$$$================================$$$$$$$$oooo            ",
"........--------$$$$$$$$================================$$$$$$$$oooo            ",
"........--------$$$$$$$$================================$$$$$$$$oooo            ",
"    ....----oooo$$$$;;;;;;;;::::================::::::::>>>>$$$$----    ,,,,    ",
"    ....----oooo$$$$;;;;;;;;::::================::::::::>>>>$$$$----    ,,,,    ",
"    ....----oooo$$$$;;;;;;;;::::================::::::::>>>>$$$$----    ,,,,    ",
"    ....----oooo$$$$;;;;;;;;::::================::::::::>>>>$$$$----    ,,,,    ",
"        oooo--------::::::::::::::::;;;;;;;;::::>>>>>>>>::::--------            ",
"        oooo--------::::::::::::::::;;;;;;;;::::>>>>>>>>::::--------            ",
"        oooo--------::::::::::::::::;;;;;;;;::::>>>>>>>>::::--------            ",
"        oooo--------::::::::::::::::;;;;;;;;::::>>>>>>>>::::--------            ",
"    oooo--------;;;;::::;;;;;;;;::::::::::::;;;;::::::::>>>>>>>>----............",
"    oooo--------;;;;::::;;;;;;;;::::::::::::;;;;::::::::>>>>>>>>----............",
"    oooo--------;;;;::::;;;;;;;;::::::::::::;;;;::::::::>>>>>>>>----............",
"    oooo--------;;;;::::;;;;;;;;::::::::::::;;;;::::::::>>>>>>>>----............",
"    oooo....----<<<<<<<<::::::::;;;;;;;;::::::::>>>>::::1111::::----............",
"    oooo....----<<<<<<<<::::::::;;;;;;;;::::::::>>>>::::1111::::----............",
"    oooo....----<<<<<<<<::::::::;;;;;;;;::::::::>>>>::::1111::::----............",
"    oooo....----<<<<<<<<::::::::;;;;;;;;::::::::>>>>::::1111::::----............",
"2222oooo    ----;;;;::::<<<<<<<<::::::::;;;;;;;;::::>>>>::::1111----....oooo....",
"2222oooo    ----;;;;::::<<<<<<<<::::::::;;;;;;;;::::>>>>::::1111----....oooo....",
"2222oooo    ----;;;;::::<<<<<<<<::::::::;;;;;;;;::::>>>>::::1111----....oooo....",
"2222oooo    ----;;;;::::<<<<<<<<::::::::;;;;;;;;::::>>>>::::1111----....oooo....",
"........oooo----::::;;;;3333;;;;<<<<<<<<::::::::;;;;;;;;;;;;::::----oooo....    ",
"........oooo----::::;;;;3333;;;;<<<<<<<<::::::::;;;;;;;;;;;;::::----oooo....    ",
"........oooo----::::;;;;3333;;;;<<<<<<<<::::::::;;;;;;;;;;;;::::----oooo....    ",
"........oooo----::::;;;;3333;;;;<<<<<<<<::::::::;;;;;;;;;;;;::::----oooo....    ",
"............---->>>>444455553333;;;;::::<<<<<<<<::::----4444;;;;----%%%%        ",
"............---->>>>444455553333;;;;::::<<<<<<<<::::----4444;;;;----%%%%        ",
"............---->>>>444455553333;;;;::::<<<<<<<<::::----4444;;;;----%%%%        ",
"............---->>>>444455553333;;;;::::<<<<<<<<::::----4444;;;;----%%%%        ",
"............----66666666555533331111;;;;;;;;;;;;::::----66666666----            ",
"............----66666666555533331111;;;;;;;;;;;;::::----66666666----            ",
"............----66666666555533331111;;;;;;;;;;;;::::----66666666----            ",
"............----66666666555533331111;;;;;;;;;;;;::::----66666666----            ",
"    ............--------7777--------::::::::--------7777--------        ....    ",
"    ............--------7777--------::::::::--------7777--------        ....    ",
"    ............--------7777--------::::::::--------7777--------        ....    ",
"    ............--------7777--------::::::::--------7777--------        ....    ",
"    ................----888888888888--------888888888888----........    ........",
"    ................----888888888888--------888888888888----........    ........",
"    ................----888888888888--------888888888888----........    ........",
"    ................----888888888888--------888888888888----........    ........",
"            ........,,,,------------        ------------............    ........",
"            ........,,,,------------        ------------............    ........",
"            ........,,,,------------        ------------............    ........",
"            ........,,,,------------        ------------............    ........"
};
