/* XPM */
static const char *player_ue[] = {
/* columns rows colors chars-per-pixel */
"80 80 26 1 ",
"  c #420075",
". c gray25",
"X c #77007E",
"o c #38002B",
"O c #770058",
"+ c #839BA8",
"@ c #7F94A1",
"# c #718590",
"$ c #63727B",
"% c #77489B",
"& c black",
"* c #443E1E",
"= c #524B24",
"- c #4D482A",
"; c #774053",
": c #3B361A",
"> c #522A05",
", c #643000",
"< c #BF8800",
"1 c #292612",
"2 c #771A53",
"3 c #572A00",
"4 c #492200",
"5 c #F1B272",
"6 c #696A6A",
"7 c #595652",
/* pixels */
"    ........                    ........                        XXXX            ",
"    ........                    ........                        XXXX            ",
"    ........                    ........                        XXXX            ",
"    ........                    ........                        XXXX            ",
"............oooo    OOOO        ............    oooo                    OOOO    ",
"............oooo    OOOO        ............    oooo                    OOOO    ",
"............oooo    OOOO        ............    oooo                    OOOO    ",
"............oooo    OOOO        ............    oooo                    OOOO    ",
"    ....        oooooooo++++@@@@####$$$$$$$$$$$$$$$$$$$$            ........    ",
"    ....        oooooooo++++@@@@####$$$$$$$$$$$$$$$$$$$$            ........    ",
"    ....        oooooooo++++@@@@####$$$$$$$$$$$$$$$$$$$$            ........    ",
"    ....        oooooooo++++@@@@####$$$$$$$$$$$$$$$$$$$$            ........    ",
"%%%%        ........++++@@@@####$$$$$$$$$$$$$$$$$$$$$$$$$$$$    ................",
"%%%%        ........++++@@@@####$$$$$$$$$$$$$$$$$$$$$$$$$$$$    ................",
"%%%%        ........++++@@@@####$$$$$$$$$$$$$$$$$$$$$$$$$$$$    ................",
"%%%%        ........++++@@@@####$$$$$$$$$$$$$$$$$$$$$$$$$$$$    ................",
"    ............++++@@@@####$$$$$$$$$$$$$$$$$$$$$$$$$$$$$$$$$$$$................",
"    ............++++@@@@####$$$$$$$$$$$$$$$$$$$$$$$$$$$$$$$$$$$$................",
"    ............++++@@@@####$$$$$$$$$$$$$$$$$$$$$$$$$$$$$$$$$$$$................",
"    ............++++@@@@####$$$$$$$$$$$$$$$$$$$$$$$$$$$$$$$$$$$$................",
"............oooo@@@@####$$$$$$$$$$$$$$$$$$$$$$$$$$$$$$$$$$$$$$$$....oooo........",
"............oooo@@@@####$$$$$$$$$$$$$$$$$$$$$$$$$$$$$$$$$$$$$$$$....oooo........",
"............oooo@@@@####$$$$$$$$$$$$$$$$$$$$$$$$$$$$$$$$$$$$$$$$....oooo........",
"............oooo@@@@####$$$$$$$$$$$$$$$$$$$$$$$$$$$$$$$$$$$$$$$$....oooo........",
"....oooooooo&&&&####$$$$$$$$$$$$$$$$$$$$$$$$$$$$$$$$$$$$$$$$$$$$    oooo....    ",
"....oooooooo&&&&####$$$$$$$$$$$$$$$$$$$$$$$$$$$$$$$$$$$$$$$$$$$$    oooo....    ",
"....oooooooo&&&&####$$$$$$$$$$$$$$$$$$$$$$$$$$$$$$$$$$$$$$$$$$$$    oooo....    ",
"....oooooooo&&&&####$$$$$$$$$$$$$$$$$$$$$$$$$$$$$$$$$$$$$$$$$$$$    oooo....    ",
"oooo....&&&&&&&&$$$$$$$$$$$$$$$$$$$$$$$$$$$$$$$$$$$$$$$$$$$$$$$$&&&&    ....%%%%",
"oooo....&&&&&&&&$$$$$$$$$$$$$$$$$$$$$$$$$$$$$$$$$$$$$$$$$$$$$$$$&&&&    ....%%%%",
"oooo....&&&&&&&&$$$$$$$$$$$$$$$$$$$$$$$$$$$$$$$$$$$$$$$$$$$$$$$$&&&&    ....%%%%",
"oooo....&&&&&&&&$$$$$$$$$$$$$$$$$$$$$$$$$$$$$$$$$$$$$$$$$$$$$$$$&&&&    ....%%%%",
"........&&&&&&&&$$$$$$$$$$$$$$$$$$$$$$$$$$$$$$$$$$$$$$$$$$$$$$$$oooo            ",
"........&&&&&&&&$$$$$$$$$$$$$$$$$$$$$$$$$$$$$$$$$$$$$$$$$$$$$$$$oooo            ",
"........&&&&&&&&$$$$$$$$$$$$$$$$$$$$$$$$$$$$$$$$$$$$$$$$$$$$$$$$oooo            ",
"........&&&&&&&&$$$$$$$$$$$$$$$$$$$$$$$$$$$$$$$$$$$$$$$$$$$$$$$$oooo            ",
"    ....&&&&oooo$$$$********====$$$$$$$$$$$$$$$$========----$$$$&&&&    ;;;;    ",
"    ....&&&&oooo$$$$********====$$$$$$$$$$$$$$$$========----$$$$&&&&    ;;;;    ",
"    ....&&&&oooo$$$$********====$$$$$$$$$$$$$$$$========----$$$$&&&&    ;;;;    ",
"    ....&&&&oooo$$$$********====$$$$$$$$$$$$$$$$========----$$$$&&&&    ;;;;    ",
"        oooo&&&&&&&&========****====****--------====----====&&&&&&&&            ",
"        oooo&&&&&&&&========****====****--------====----====&&&&&&&&            ",
"        oooo&&&&&&&&========****====****--------====----====&&&&&&&&            ",
"        oooo&&&&&&&&========****====****--------====----====&&&&&&&&            ",
"    oooo&&&&&&&&****====::::>>>>,,,,,,,,,,,,,,,,>>>>========----&&&&............",
"    oooo&&&&&&&&****====::::>>>>,,,,,,,,,,,,,,,,>>>>========----&&&&............",
"    oooo&&&&&&&&****====::::>>>>,,,,,,,,,,,,,,,,>>>>========----&&&&............",
"    oooo&&&&&&&&****====::::>>>>,,,,,,,,,,,,,,,,>>>>========----&&&&............",
"    oooo....&&&&::::::::,,,,,,,,>>>><<<<<<<<>>>>,,,,,,,,1111====&&&&............",
"    oooo....&&&&::::::::,,,,,,,,>>>><<<<<<<<>>>>,,,,,,,,1111====&&&&............",
"    oooo....&&&&::::::::,,,,,,,,>>>><<<<<<<<>>>>,,,,,,,,1111====&&&&............",
"    oooo....&&&&::::::::,,,,,,,,>>>><<<<<<<<>>>>,,,,,,,,1111====&&&&............",
"2222oooo    &&&&****====3333,,,,,,,,,,,,,,,,,,,,,,,,3333====1111&&&&....oooo....",
"2222oooo    &&&&****====3333,,,,,,,,,,,,,,,,,,,,,,,,3333====1111&&&&....oooo....",
"2222oooo    &&&&****====3333,,,,,,,,,,,,,,,,,,,,,,,,3333====1111&&&&....oooo....",
"2222oooo    &&&&****====3333,,,,,,,,,,,,,,,,,,,,,,,,3333====1111&&&&....oooo....",
"........oooo&&&&====****44443333,,,,,,,,,,,,,,,,33334444****====&&&&oooo....    ",
"........oooo&&&&====****44443333,,,,,,,,,,,,,,,,33334444****====&&&&oooo....    ",
"........oooo&&&&====****44443333,,,,,,,,,,,,,,,,33334444****====&&&&oooo....    ",
"........oooo&&&&====****44443333,,,,,,,,,,,,,,,,33334444****====&&&&oooo....    ",
"............&&&&----====&&&&444433333333333333334444&&&&====****&&&&%%%%        ",
"............&&&&----====&&&&444433333333333333334444&&&&====****&&&&%%%%        ",
"............&&&&----====&&&&444433333333333333334444&&&&====****&&&&%%%%        ",
"............&&&&----====&&&&444433333333333333334444&&&&====****&&&&%%%%        ",
"............&&&&5555====&&&&****4444444444444444====&&&&====5555&&&&            ",
"............&&&&5555====&&&&****4444444444444444====&&&&====5555&&&&            ",
"............&&&&5555====&&&&****4444444444444444====&&&&====5555&&&&            ",
"............&&&&5555====&&&&****4444444444444444====&&&&====5555&&&&            ",
"    ............&&&&&&&&6666&&&&&&&&========&&&&&&&&6666&&&&&&&&        ....    ",
"    ............&&&&&&&&6666&&&&&&&&========&&&&&&&&6666&&&&&&&&        ....    ",
"    ............&&&&&&&&6666&&&&&&&&========&&&&&&&&6666&&&&&&&&        ....    ",
"    ............&&&&&&&&6666&&&&&&&&========&&&&&&&&6666&&&&&&&&        ....    ",
"    ................&&&&777777777777&&&&&&&&777777777777&&&&........    ........",
"    ................&&&&777777777777&&&&&&&&777777777777&&&&........    ........",
"    ................&&&&777777777777&&&&&&&&777777777777&&&&........    ........",
"    ................&&&&777777777777&&&&&&&&777777777777&&&&........    ........",
"            ........;;;;&&&&&&&&&&&&        &&&&&&&&&&&&............    ........",
"            ........;;;;&&&&&&&&&&&&        &&&&&&&&&&&&............    ........",
"            ........;;;;&&&&&&&&&&&&        &&&&&&&&&&&&............    ........",
"            ........;;;;&&&&&&&&&&&&        &&&&&&&&&&&&............    ........"
};
