/* XPM */
static const char *player_r1[] = {
/* columns rows colors chars-per-pixel */
"20 20 19 1 ",
"  c black",
". c #371A00",
"X c #3B361A",
"o c #522A05",
"O c #442816",
"+ c #443E1E",
"@ c #643000",
"# c #4D482A",
"$ c #524B24",
"% c #595652",
"& c #696A6A",
"* c #63727B",
"= c #BF8800",
"- c #8D8A48",
"; c #F1B272",
": c #718590",
"> c #7F94A1",
", c #FFC58A",
"< c None",
/* pixels */
"<<<<<<<<<<<<<<<<<<<<",
"<<<<<<<<<<<<<<<<<<<<",
"<<<<<<<<<<>:***<<<<<",
"<<<<<<<<<>:*****<<<<",
"<<<<<<<<>:****---<<<",
"<<<<<<<<:****-----<<",
"<<<<<<<<*****-----<<",
"<<<<<<<<*****-----<<",
"<<<<<<< *****-----<<",
"<<<<<< $#*****---<<<",
"<<<<< +#$$$$****<<<<",
"<<<<< @@+##++$ <<<<<",
"<<<<< =oo$+##+$ <<<<",
"<<<<< o@@+$XX$+ <<<<",
"<<<<< @@@$X$$O$ <<<<",
"<<<<< .@@X$,,OX <<<<",
"<<<<<< ..$ ;; # <<<<",
"<<<<<<    &  &  <<<<",
"<<<<<< %%% %%%% <<<<",
"<<<<<<<   <    <<<<<"
};
