/* XPM */
static const char *wall[] = {
/* columns rows colors chars-per-pixel */
"20 20 20 1 ",
"  c #444444",
". c #464646",
"X c #555555",
"o c #484848",
"O c gray29",
"+ c #5A5A5A",
"@ c gray32",
"# c #4B4B4B",
"$ c #515151",
"% c #535353",
"& c #4E4E4E",
"* c #5F5F5F",
"= c gray35",
"- c #676767",
"; c #4C4C4C",
": c #565656",
"> c gray36",
", c #5D5D5D",
"< c #606060",
"1 c gray43",
/* pixels */
" .X    XX    o      ",
"  XO  .+     @##$%XX",
"  o+& o*=%$$$-=%&#oo",
"O   X%;:oO;;;XO     ",
"@=%&#=Xo    o:#     ",
"  o;&@X$. o@+#=  .  ",
"      .;=>=&  =$=++X",
"O.    o:.:&   ,:. .#",
"%::&  &@ O@   &$    ",
"  o$+.%O O@+++>-o   ",
"    >.%O @&....;%   ",
".##&*$+. :o   O&*&  ",
"=$$&*+#  @$  %%;@>  ",
"+.   ;+X .. @$   X& ",
"X      &:# #X    .:$",
" &XX&#OoO:>>o     .@",
"=@##<,:XXX-1XXo     ",
"o  O*>:$  $# O>o    ",
"   Xo .@& #&  #X$$&.",
"  .:   oX .X.  .oO&%"
};
