/* XPM */
static const char *wall[] = {
/* columns rows colors chars-per-pixel */
"80 80 20 1 ",
"  c #444444",
". c #464646",
"X c #555555",
"o c #484848",
"O c gray29",
"+ c #5A5A5A",
"@ c gray32",
"# c #4B4B4B",
"$ c #515151",
"% c #535353",
"& c #4E4E4E",
"* c #5F5F5F",
"= c gray35",
"- c #676767",
"; c #4C4C4C",
": c #565656",
"> c gray36",
", c #5D5D5D",
"< c #606060",
"1 c gray43",
/* pixels */
"    ....XXXX                XXXXXXXX                oooo                        ",
"    ....XXXX                XXXXXXXX                oooo                        ",
"    ....XXXX                XXXXXXXX                oooo                        ",
"    ....XXXX                XXXXXXXX                oooo                        ",
"        XXXXOOOO        ....++++                    @@@@########$$$$%%%%XXXXXXXX",
"        XXXXOOOO        ....++++                    @@@@########$$$$%%%%XXXXXXXX",
"        XXXXOOOO        ....++++                    @@@@########$$$$%%%%XXXXXXXX",
"        XXXXOOOO        ....++++                    @@@@########$$$$%%%%XXXXXXXX",
"        oooo++++&&&&    oooo****====%%%%$$$$$$$$$$$$----====%%%%&&&&####oooooooo",
"        oooo++++&&&&    oooo****====%%%%$$$$$$$$$$$$----====%%%%&&&&####oooooooo",
"        oooo++++&&&&    oooo****====%%%%$$$$$$$$$$$$----====%%%%&&&&####oooooooo",
"        oooo++++&&&&    oooo****====%%%%$$$$$$$$$$$$----====%%%%&&&&####oooooooo",
"OOOO            XXXX%%%%;;;;::::ooooOOOO;;;;;;;;;;;;XXXXOOOO                    ",
"OOOO            XXXX%%%%;;;;::::ooooOOOO;;;;;;;;;;;;XXXXOOOO                    ",
"OOOO            XXXX%%%%;;;;::::ooooOOOO;;;;;;;;;;;;XXXXOOOO                    ",
"OOOO            XXXX%%%%;;;;::::ooooOOOO;;;;;;;;;;;;XXXXOOOO                    ",
"@@@@====%%%%&&&&####====XXXXoooo                oooo::::####                    ",
"@@@@====%%%%&&&&####====XXXXoooo                oooo::::####                    ",
"@@@@====%%%%&&&&####====XXXXoooo                oooo::::####                    ",
"@@@@====%%%%&&&&####====XXXXoooo                oooo::::####                    ",
"        oooo;;;;&&&&@@@@XXXX$$$$....    oooo@@@@++++####====        ....        ",
"        oooo;;;;&&&&@@@@XXXX$$$$....    oooo@@@@++++####====        ....        ",
"        oooo;;;;&&&&@@@@XXXX$$$$....    oooo@@@@++++####====        ....        ",
"        oooo;;;;&&&&@@@@XXXX$$$$....    oooo@@@@++++####====        ....        ",
"                        ....;;;;====>>>>====&&&&        ====$$$$====++++++++XXXX",
"                        ....;;;;====>>>>====&&&&        ====$$$$====++++++++XXXX",
"                        ....;;;;====>>>>====&&&&        ====$$$$====++++++++XXXX",
"                        ....;;;;====>>>>====&&&&        ====$$$$====++++++++XXXX",
"OOOO....                oooo::::....::::&&&&            ,,,,::::....    ....####",
"OOOO....                oooo::::....::::&&&&            ,,,,::::....    ....####",
"OOOO....                oooo::::....::::&&&&            ,,,,::::....    ....####",
"OOOO....                oooo::::....::::&&&&            ,,,,::::....    ....####",
"%%%%::::::::&&&&        &&&&@@@@    OOOO@@@@            &&&&$$$$                ",
"%%%%::::::::&&&&        &&&&@@@@    OOOO@@@@            &&&&$$$$                ",
"%%%%::::::::&&&&        &&&&@@@@    OOOO@@@@            &&&&$$$$                ",
"%%%%::::::::&&&&        &&&&@@@@    OOOO@@@@            &&&&$$$$                ",
"        oooo$$$$++++....%%%%OOOO    OOOO@@@@++++++++++++>>>>----oooo            ",
"        oooo$$$$++++....%%%%OOOO    OOOO@@@@++++++++++++>>>>----oooo            ",
"        oooo$$$$++++....%%%%OOOO    OOOO@@@@++++++++++++>>>>----oooo            ",
"        oooo$$$$++++....%%%%OOOO    OOOO@@@@++++++++++++>>>>----oooo            ",
"                >>>>....%%%%OOOO    @@@@&&&&................;;;;%%%%            ",
"                >>>>....%%%%OOOO    @@@@&&&&................;;;;%%%%            ",
"                >>>>....%%%%OOOO    @@@@&&&&................;;;;%%%%            ",
"                >>>>....%%%%OOOO    @@@@&&&&................;;;;%%%%            ",
"....########&&&&****$$$$++++....    ::::oooo            OOOO&&&&****&&&&        ",
"....########&&&&****$$$$++++....    ::::oooo            OOOO&&&&****&&&&        ",
"....########&&&&****$$$$++++....    ::::oooo            OOOO&&&&****&&&&        ",
"....########&&&&****$$$$++++....    ::::oooo            OOOO&&&&****&&&&        ",
"====$$$$$$$$&&&&****++++####        @@@@$$$$        %%%%%%%%;;;;@@@@>>>>        ",
"====$$$$$$$$&&&&****++++####        @@@@$$$$        %%%%%%%%;;;;@@@@>>>>        ",
"====$$$$$$$$&&&&****++++####        @@@@$$$$        %%%%%%%%;;;;@@@@>>>>        ",
"====$$$$$$$$&&&&****++++####        @@@@$$$$        %%%%%%%%;;;;@@@@>>>>        ",
"++++....            ;;;;++++XXXX    ........    @@@@$$$$            XXXX&&&&    ",
"++++....            ;;;;++++XXXX    ........    @@@@$$$$            XXXX&&&&    ",
"++++....            ;;;;++++XXXX    ........    @@@@$$$$            XXXX&&&&    ",
"++++....            ;;;;++++XXXX    ........    @@@@$$$$            XXXX&&&&    ",
"XXXX                        &&&&::::####    ####XXXX                ....::::$$$$",
"XXXX                        &&&&::::####    ####XXXX                ....::::$$$$",
"XXXX                        &&&&::::####    ####XXXX                ....::::$$$$",
"XXXX                        &&&&::::####    ####XXXX                ....::::$$$$",
"    &&&&XXXXXXXX&&&&####OOOOooooOOOO::::>>>>>>>>oooo                    ....@@@@",
"    &&&&XXXXXXXX&&&&####OOOOooooOOOO::::>>>>>>>>oooo                    ....@@@@",
"    &&&&XXXXXXXX&&&&####OOOOooooOOOO::::>>>>>>>>oooo                    ....@@@@",
"    &&&&XXXXXXXX&&&&####OOOOooooOOOO::::>>>>>>>>oooo                    ....@@@@",
"====@@@@########<<<<,,,,::::XXXXXXXXXXXX----1111XXXXXXXXoooo                    ",
"====@@@@########<<<<,,,,::::XXXXXXXXXXXX----1111XXXXXXXXoooo                    ",
"====@@@@########<<<<,,,,::::XXXXXXXXXXXX----1111XXXXXXXXoooo                    ",
"====@@@@########<<<<,,,,::::XXXXXXXXXXXX----1111XXXXXXXXoooo                    ",
"oooo        OOOO****>>>>::::$$$$        $$$$####    OOOO>>>>oooo                ",
"oooo        OOOO****>>>>::::$$$$        $$$$####    OOOO>>>>oooo                ",
"oooo        OOOO****>>>>::::$$$$        $$$$####    OOOO>>>>oooo                ",
"oooo        OOOO****>>>>::::$$$$        $$$$####    OOOO>>>>oooo                ",
"            XXXXoooo    ....@@@@&&&&    ####&&&&        ####XXXX$$$$$$$$&&&&....",
"            XXXXoooo    ....@@@@&&&&    ####&&&&        ####XXXX$$$$$$$$&&&&....",
"            XXXXoooo    ....@@@@&&&&    ####&&&&        ####XXXX$$$$$$$$&&&&....",
"            XXXXoooo    ....@@@@&&&&    ####&&&&        ####XXXX$$$$$$$$&&&&....",
"        ....::::            ooooXXXX    ....XXXX....        ....ooooOOOO&&&&%%%%",
"        ....::::            ooooXXXX    ....XXXX....        ....ooooOOOO&&&&%%%%",
"        ....::::            ooooXXXX    ....XXXX....        ....ooooOOOO&&&&%%%%",
"        ....::::            ooooXXXX    ....XXXX....        ....ooooOOOO&&&&%%%%"
};
